<svg id="SvgjsSvg1103" width="410" height="440" xmlns="http://www.w3.org/2000/svg" version="1.1" xmlns:xlink="http://www.w3.org/1999/xlink" xmlns:svgjs="http://svgjs.com/svgjs"><defs id="SvgjsDefs1104"><pattern patternUnits="userSpaceOnUse" id="pattern_mark_0" width="300" height="300"><text x="150" y="100" fill="rgba(229,229,229,0.8)" font-size="18" transform="rotate(-45, 150, 150)" style="dominant-baseline: middle; text-anchor: middle;"></text></pattern><pattern patternUnits="userSpaceOnUse" id="pattern_mark_1" width="300" height="300"><text x="150" y="200" fill="rgba(229,229,229,0.8)" font-size="18" transform="rotate(-45, 150, 150)" style="dominant-baseline: middle; text-anchor: middle;"></text></pattern><marker id="SvgjsMarker1134" markerWidth="13" markerHeight="9" refX="9.5" refY="4.5" viewBox="0 0 13 9" orient="auto" markerUnits="userSpaceOnUse" stroke-dasharray="0,0"><path id="SvgjsPath1135" d="M0,0 L13,4.5 L0,9 L0,0" fill="#323232" stroke="#323232" stroke-width="1"></path></marker><marker id="SvgjsMarker1142" markerWidth="13" markerHeight="9" refX="9.5" refY="4.5" viewBox="0 0 13 9" orient="auto" markerUnits="userSpaceOnUse" stroke-dasharray="0,0"><path id="SvgjsPath1143" d="M0,0 L13,4.5 L0,9 L0,0" fill="#323232" stroke="#323232" stroke-width="1"></path></marker><marker id="SvgjsMarker1150" markerWidth="13" markerHeight="9" refX="9.5" refY="4.5" viewBox="0 0 13 9" orient="auto" markerUnits="userSpaceOnUse" stroke-dasharray="0,0"><path id="SvgjsPath1151" d="M0,0 L13,4.5 L0,9 L0,0" fill="#323232" stroke="#323232" stroke-width="1"></path></marker><marker id="SvgjsMarker1158" markerWidth="13" markerHeight="9" refX="9.5" refY="4.5" viewBox="0 0 13 9" orient="auto" markerUnits="userSpaceOnUse" stroke-dasharray="0,0"><path id="SvgjsPath1159" d="M0,0 L13,4.5 L0,9 L0,0" fill="#323232" stroke="#323232" stroke-width="1"></path></marker><marker id="SvgjsMarker1166" markerWidth="13" markerHeight="9" refX="9.5" refY="4.5" viewBox="0 0 13 9" orient="auto" markerUnits="userSpaceOnUse" stroke-dasharray="0,0"><path id="SvgjsPath1167" d="M0,0 L13,4.5 L0,9 L0,0" fill="#323232" stroke="#323232" stroke-width="1"></path></marker><marker id="SvgjsMarker1174" markerWidth="13" markerHeight="9" refX="9.5" refY="4.5" viewBox="0 0 13 9" orient="auto" markerUnits="userSpaceOnUse" stroke-dasharray="0,0"><path id="SvgjsPath1175" d="M0,0 L13,4.5 L0,9 L0,0" fill="#323232" stroke="#323232" stroke-width="1"></path></marker><marker id="SvgjsMarker1182" markerWidth="13" markerHeight="9" refX="9.5" refY="4.5" viewBox="0 0 13 9" orient="auto" markerUnits="userSpaceOnUse" stroke-dasharray="0,0"><path id="SvgjsPath1183" d="M0,0 L13,4.5 L0,9 L0,0" fill="#323232" stroke="#323232" stroke-width="1"></path></marker><marker id="SvgjsMarker1190" markerWidth="13" markerHeight="9" refX="9.5" refY="4.5" viewBox="0 0 13 9" orient="auto" markerUnits="userSpaceOnUse" stroke-dasharray="0,0"><path id="SvgjsPath1191" d="M0,0 L13,4.5 L0,9 L0,0" fill="#323232" stroke="#323232" stroke-width="1"></path></marker><marker id="SvgjsMarker1198" markerWidth="13" markerHeight="9" refX="9.5" refY="4.5" viewBox="0 0 13 9" orient="auto" markerUnits="userSpaceOnUse" stroke-dasharray="0,0"><path id="SvgjsPath1199" d="M0,0 L13,4.5 L0,9 L0,0" fill="#323232" stroke="#323232" stroke-width="1"></path></marker></defs><rect id="svgbackgroundid" width="410" height="440" fill="transparent"></rect><rect id="SvgjsRect1106" width="410" height="440" fill="url(#pattern_mark_0)"></rect><rect id="SvgjsRect1107" width="410" height="440" fill="url(#pattern_mark_1)"></rect><g id="SvgjsG1108" transform="translate(55,112)"><path id="SvgjsPath1109" d="M 0 35C 0 -11.666666666666666 70 -11.666666666666666 70 35C 70 81.66666666666667 0 81.66666666666667 0 35Z" stroke="rgba(33,41,48,1)" stroke-width="1.5" fill-opacity="1" fill="#ffffff"></path><g id="SvgjsG1110"><text id="SvgjsText1111" font-family="微软雅黑" text-anchor="middle" font-size="13px" width="50px" fill="#323232" font-weight="400" align="middle" lineHeight="125%" anchor="middle" family="微软雅黑" size="13px" weight="400" font-style="" opacity="1" y="24.375" transform="rotate(0)"><tspan id="SvgjsTspan1112" dy="16.25" x="35"><tspan id="SvgjsTspan1113" style="">S0</tspan></tspan></text></g></g><g id="SvgjsG1114" transform="translate(55,306)"><path id="SvgjsPath1115" d="M 0 35C 0 -11.666666666666666 70 -11.666666666666666 70 35C 70 81.66666666666667 0 81.66666666666667 0 35Z" stroke="rgba(33,41,48,1)" stroke-width="1.5" fill-opacity="1" fill="#ffffff"></path><g id="SvgjsG1116"><text id="SvgjsText1117" font-family="微软雅黑" text-anchor="middle" font-size="13px" width="50px" fill="#323232" font-weight="400" align="middle" lineHeight="125%" anchor="middle" family="微软雅黑" size="13px" weight="400" font-style="" opacity="1" y="24.375" transform="rotate(0)"><tspan id="SvgjsTspan1118" dy="16.25" x="35"><tspan id="SvgjsTspan1119" style="">S3</tspan></tspan></text></g></g><g id="SvgjsG1120" transform="translate(315,306)"><path id="SvgjsPath1121" d="M 0 35C 0 -11.666666666666666 70 -11.666666666666666 70 35C 70 81.66666666666667 0 81.66666666666667 0 35Z" stroke="rgba(33,41,48,1)" stroke-width="1.5" fill-opacity="1" fill="#ffffff"></path><g id="SvgjsG1122"><text id="SvgjsText1123" font-family="微软雅黑" text-anchor="middle" font-size="13px" width="50px" fill="#323232" font-weight="400" align="middle" lineHeight="125%" anchor="middle" family="微软雅黑" size="13px" weight="400" font-style="" opacity="1" y="24.375" transform="rotate(0)"><tspan id="SvgjsTspan1124" dy="16.25" x="35"><tspan id="SvgjsTspan1125" style="">S2</tspan></tspan></text></g></g><g id="SvgjsG1126" transform="translate(315,118)"><path id="SvgjsPath1127" d="M 0 35C 0 -11.666666666666666 70 -11.666666666666666 70 35C 70 81.66666666666667 0 81.66666666666667 0 35Z" stroke="rgba(33,41,48,1)" stroke-width="1.5" fill-opacity="1" fill="#ffffff"></path><g id="SvgjsG1128"><text id="SvgjsText1129" font-family="微软雅黑" text-anchor="middle" font-size="13px" width="50px" fill="#323232" font-weight="400" align="middle" lineHeight="125%" anchor="middle" family="微软雅黑" size="13px" weight="400" font-style="" opacity="1" y="24.375" transform="rotate(0)"><tspan id="SvgjsTspan1130" dy="16.25" x="35"><tspan id="SvgjsTspan1131" style="">S1</tspan></tspan></text></g></g><g id="SvgjsG1132"><path id="SvgjsPath1133" d="M125.75 147L220.49391012564956 147L220.49391012564956 147.3487823687206L295.9878202512991 147.3487823687206L295.9878202512991 147.3487823687206L313.2878202512991 147.3487823687206" stroke="#323232" stroke-width="1.5" fill="none" marker-end="url(#SvgjsMarker1134)"></path><rect id="SvgjsRect1136" width="20.4" height="18" x="232.40358320195244" y="138.21732400156966" fill="#ffffff"></rect><text id="SvgjsText1137" font-family="微软雅黑" text-anchor="middle" font-size="13px" width="20.4px" fill="#323232" font-weight="400" align="top" lineHeight="16px" anchor="middle" family="微软雅黑" size="13px" weight="400" font-style="" opacity="1" y="135.59232400156966" transform="rotate(0)"><tspan id="SvgjsTspan1138" dy="16.25" x="242.40358320195244"><tspan id="SvgjsTspan1139" style="">1/0</tspan></tspan></text></g><g id="SvgjsG1140"><path id="SvgjsPath1141" d="M350 188.75L350 247L350 247L350 303.3" stroke="#323232" stroke-width="1.5" fill="none" marker-end="url(#SvgjsMarker1142)"></path><rect id="SvgjsRect1144" width="20.4" height="18" x="339.8" y="221.4927966101695" fill="#ffffff"></rect><text id="SvgjsText1145" font-family="微软雅黑" text-anchor="middle" font-size="13px" width="20.4px" fill="#323232" font-weight="400" align="top" lineHeight="16px" anchor="middle" family="微软雅黑" size="13px" weight="400" font-style="" opacity="1" y="218.8677966101695" transform="rotate(0)"><tspan id="SvgjsTspan1146" dy="16.25" x="349.8"><tspan id="SvgjsTspan1147" style="">1/0</tspan></tspan></text></g><g id="SvgjsG1148"><path id="SvgjsPath1149" d="M321.6770509831249 318.76335575687744L222.26412846841288 318.76335575687744L222.26412846841288 161.56162885321092L124.80120595370084 161.56162885321092" stroke="#323232" stroke-width="1.5" fill="none" marker-end="url(#SvgjsMarker1150)"></path><rect id="SvgjsRect1152" width="20.4" height="18" x="184.81585461189127" y="152.56162885321092" fill="#ffffff"></rect><text id="SvgjsText1153" font-family="微软雅黑" text-anchor="middle" font-size="13px" width="20.4px" fill="#323232" font-weight="400" align="top" lineHeight="16px" anchor="middle" family="微软雅黑" size="13px" weight="400" font-style="" opacity="1" y="149.93662885321092" transform="rotate(0)"><tspan id="SvgjsTspan1154" dy="16.25" x="194.81585461189127"><tspan id="SvgjsTspan1155" style="">0/0</tspan></tspan></text></g><g id="SvgjsG1156"><path id="SvgjsPath1157" d="M90 305.25L90 244L90 244L90 184.7" stroke="#323232" stroke-width="1.5" fill="none" marker-end="url(#SvgjsMarker1158)"></path><rect id="SvgjsRect1160" width="20.4" height="18" x="79.8" y="258.33508064516127" fill="#ffffff"></rect><text id="SvgjsText1161" font-family="微软雅黑" text-anchor="middle" font-size="13px" width="20.4px" fill="#323232" font-weight="400" align="top" lineHeight="16px" anchor="middle" family="微软雅黑" size="13px" weight="400" font-style="" opacity="1" y="255.71008064516127" transform="rotate(0)"><tspan id="SvgjsTspan1162" dy="16.25" x="89.8"><tspan id="SvgjsTspan1163" style="">0/0</tspan></tspan></text></g><g id="SvgjsG1164"><path id="SvgjsPath1165" d="M314.25 341L220 341L220 341L127.69999999999999 341" stroke="#323232" stroke-width="1.5" fill="none" marker-end="url(#SvgjsMarker1166)"></path><rect id="SvgjsRect1168" width="20.4" height="18" x="203.9021052631579" y="332" fill="#ffffff"></rect><text id="SvgjsText1169" font-family="微软雅黑" text-anchor="middle" font-size="13px" width="20.4px" fill="#323232" font-weight="400" align="top" lineHeight="16px" anchor="middle" family="微软雅黑" size="13px" weight="400" font-style="" opacity="1" y="329.375" transform="rotate(0)"><tspan id="SvgjsTspan1170" dy="16.25" x="213.9021052631579"><tspan id="SvgjsTspan1171" style="">1/1</tspan></tspan></text></g><g id="SvgjsG1172"><path id="SvgjsPath1173" d="M54.25 341L25 341L25 406L90 406L90 378.7" stroke="#323232" stroke-width="1.5" fill="none" marker-end="url(#SvgjsMarker1174)"></path><rect id="SvgjsRect1176" width="20.4" height="18" x="36.40736842105264" y="396.99999999999994" fill="#ffffff"></rect><text id="SvgjsText1177" font-family="微软雅黑" text-anchor="middle" font-size="13px" width="20.4px" fill="#323232" font-weight="400" align="top" lineHeight="16px" anchor="middle" family="微软雅黑" size="13px" weight="400" font-style="" opacity="1" y="394.37499999999994" transform="rotate(0)"><tspan id="SvgjsTspan1178" dy="16.25" x="46.40736842105264"><tspan id="SvgjsTspan1179" style="">1/1</tspan></tspan></text></g><g id="SvgjsG1180"><path id="SvgjsPath1181" d="M54.25 147L25 147L25 82L73.75348458715632 82L73.75348458715632 113.89517618519666" stroke="#323232" stroke-width="1.5" fill="none" marker-end="url(#SvgjsMarker1182)"></path><rect id="SvgjsRect1184" width="20.4" height="18" x="36.26739244782091" y="73" fill="#ffffff"></rect><text id="SvgjsText1185" font-family="微软雅黑" text-anchor="middle" font-size="13px" width="20.4px" fill="#323232" font-weight="400" align="top" lineHeight="16px" anchor="middle" family="微软雅黑" size="13px" weight="400" font-style="" opacity="1" y="70.375" transform="rotate(0)"><tspan id="SvgjsTspan1186" dy="16.25" x="46.26739244782091"><tspan id="SvgjsTspan1187" style="">0/0</tspan></tspan></text></g><g id="SvgjsG1188"><path id="SvgjsPath1189" d="M322.4020430144269 130.46264590130264L222.1634119952874 130.46264590130264L222.1634119952874 130.46264590130264L123.87478097614786 130.46264590130264" stroke="#323232" stroke-width="1.5" fill="none" marker-end="url(#SvgjsMarker1190)"></path><rect id="SvgjsRect1192" width="20.4" height="18" x="194.10233274387696" y="121.46264590130264" fill="#ffffff"></rect><text id="SvgjsText1193" font-family="微软雅黑" text-anchor="middle" font-size="13px" width="20.4px" fill="#323232" font-weight="400" align="top" lineHeight="16px" anchor="middle" family="微软雅黑" size="13px" weight="400" font-style="" opacity="1" y="118.83764590130264" transform="rotate(0)"><tspan id="SvgjsTspan1194" dy="16.25" x="204.10233274387696"><tspan id="SvgjsTspan1195" style="">0/0</tspan></tspan></text></g><g id="SvgjsG1196"><path id="SvgjsPath1197" d="M100.28989928337165 25L100.28989928337165 69.34923155196478L100.28989928337165 69.34923155196478L100.28989928337165 110.99846310392954" stroke="#323232" stroke-width="1.5" fill="none" marker-end="url(#SvgjsMarker1198)"></path></g></svg>