<svg id="SvgjsSvg1164" width="695" height="399" xmlns="http://www.w3.org/2000/svg" version="1.1" xmlns:xlink="http://www.w3.org/1999/xlink" xmlns:svgjs="http://svgjs.com/svgjs"><defs id="SvgjsDefs1165"><pattern patternUnits="userSpaceOnUse" id="pattern_mark_0" width="300" height="300"><text x="150" y="100" fill="rgba(229,229,229,0.8)" font-size="18" transform="rotate(-45, 150, 150)" style="dominant-baseline: middle; text-anchor: middle;"></text></pattern><pattern patternUnits="userSpaceOnUse" id="pattern_mark_1" width="300" height="300"><text x="150" y="200" fill="rgba(229,229,229,0.8)" font-size="18" transform="rotate(-45, 150, 150)" style="dominant-baseline: middle; text-anchor: middle;"></text></pattern><marker id="SvgjsMarker1195" markerWidth="13" markerHeight="9" refX="9.5" refY="4.5" viewBox="0 0 13 9" orient="auto" markerUnits="userSpaceOnUse" stroke-dasharray="0,0"><path id="SvgjsPath1196" d="M0,0 L13,4.5 L0,9 L0,0" fill="#323232" stroke="#323232" stroke-width="1"></path></marker><marker id="SvgjsMarker1203" markerWidth="13" markerHeight="9" refX="9.5" refY="4.5" viewBox="0 0 13 9" orient="auto" markerUnits="userSpaceOnUse" stroke-dasharray="0,0"><path id="SvgjsPath1204" d="M0,0 L13,4.5 L0,9 L0,0" fill="#323232" stroke="#323232" stroke-width="1"></path></marker><marker id="SvgjsMarker1211" markerWidth="13" markerHeight="9" refX="9.5" refY="4.5" viewBox="0 0 13 9" orient="auto" markerUnits="userSpaceOnUse" stroke-dasharray="0,0"><path id="SvgjsPath1212" d="M0,0 L13,4.5 L0,9 L0,0" fill="#323232" stroke="#323232" stroke-width="1"></path></marker><marker id="SvgjsMarker1219" markerWidth="13" markerHeight="9" refX="9.5" refY="4.5" viewBox="0 0 13 9" orient="auto" markerUnits="userSpaceOnUse" stroke-dasharray="0,0"><path id="SvgjsPath1220" d="M0,0 L13,4.5 L0,9 L0,0" fill="#323232" stroke="#323232" stroke-width="1"></path></marker><marker id="SvgjsMarker1233" markerWidth="13" markerHeight="9" refX="9.5" refY="4.5" viewBox="0 0 13 9" orient="auto" markerUnits="userSpaceOnUse" stroke-dasharray="0,0"><path id="SvgjsPath1234" d="M0,0 L13,4.5 L0,9 L0,0" fill="#323232" stroke="#323232" stroke-width="1"></path></marker><marker id="SvgjsMarker1241" markerWidth="13" markerHeight="9" refX="9.5" refY="4.5" viewBox="0 0 13 9" orient="auto" markerUnits="userSpaceOnUse" stroke-dasharray="0,0"><path id="SvgjsPath1242" d="M0,0 L13,4.5 L0,9 L0,0" fill="#323232" stroke="#323232" stroke-width="1"></path></marker></defs><rect id="svgbackgroundid" width="695" height="399" fill="transparent"></rect><rect id="SvgjsRect1167" width="695" height="399" fill="url(#pattern_mark_0)"></rect><rect id="SvgjsRect1168" width="695" height="399" fill="url(#pattern_mark_1)"></rect><g id="SvgjsG1169" transform="translate(187,128)"><path id="SvgjsPath1170" d="M 16.666666666666668 0L 83.33333333333333 0C 105.55555555555556 0 105.55555555555556 50 83.33333333333333 50L 16.666666666666668 50C -5.555555555555556 50 -5.555555555555556 0 16.666666666666668 0Z" stroke="rgba(33,41,48,1)" stroke-width="1.5" fill-opacity="1" fill="#ffffff"></path><g id="SvgjsG1171"><text id="SvgjsText1172" font-family="微软雅黑" text-anchor="middle" font-size="13px" width="80px" fill="#323232" font-weight="400" align="middle" lineHeight="125%" anchor="middle" family="微软雅黑" size="13px" weight="400" font-style="" opacity="1" y="14.375" transform="rotate(0)"><tspan id="SvgjsTspan1173" dy="16.25" x="50"><tspan id="SvgjsTspan1174" style="">NS G WE R</tspan></tspan></text></g></g><g id="SvgjsG1175" transform="translate(187,324)"><path id="SvgjsPath1176" d="M 16.666666666666668 0L 83.33333333333333 0C 105.55555555555556 0 105.55555555555556 50 83.33333333333333 50L 16.666666666666668 50C -5.555555555555556 50 -5.555555555555556 0 16.666666666666668 0Z" stroke="rgba(33,41,48,1)" stroke-width="1.5" fill-opacity="1" fill="#ffffff"></path><g id="SvgjsG1177"><text id="SvgjsText1178" font-family="微软雅黑" text-anchor="middle" font-size="13px" width="80px" fill="#323232" font-weight="400" align="middle" lineHeight="125%" anchor="middle" family="微软雅黑" size="13px" weight="400" font-style="" opacity="1" y="14.375" transform="rotate(0)"><tspan id="SvgjsTspan1179" dy="16.25" x="50"><tspan id="SvgjsTspan1180" style="">NS Y WE R</tspan></tspan></text></g></g><g id="SvgjsG1181" transform="translate(546,324)"><path id="SvgjsPath1182" d="M 16.666666666666668 0L 83.33333333333333 0C 105.55555555555556 0 105.55555555555556 50 83.33333333333333 50L 16.666666666666668 50C -5.555555555555556 50 -5.555555555555556 0 16.666666666666668 0Z" stroke="rgba(33,41,48,1)" stroke-width="1.5" fill-opacity="1" fill="#ffffff"></path><g id="SvgjsG1183"><text id="SvgjsText1184" font-family="微软雅黑" text-anchor="middle" font-size="13px" width="80px" fill="#323232" font-weight="400" align="middle" lineHeight="125%" anchor="middle" family="微软雅黑" size="13px" weight="400" font-style="" opacity="1" y="14.375" transform="rotate(0)"><tspan id="SvgjsTspan1185" dy="16.25" x="50"><tspan id="SvgjsTspan1186" style="">NS R WE G</tspan></tspan></text></g></g><g id="SvgjsG1187" transform="translate(546,128)"><path id="SvgjsPath1188" d="M 16.666666666666668 0L 83.33333333333333 0C 105.55555555555556 0 105.55555555555556 50 83.33333333333333 50L 16.666666666666668 50C -5.555555555555556 50 -5.555555555555556 0 16.666666666666668 0Z" stroke="rgba(33,41,48,1)" stroke-width="1.5" fill-opacity="1" fill="#ffffff"></path><g id="SvgjsG1189"><text id="SvgjsText1190" font-family="微软雅黑" text-anchor="middle" font-size="13px" width="80px" fill="#323232" font-weight="400" align="middle" lineHeight="125%" anchor="middle" family="微软雅黑" size="13px" weight="400" font-style="" opacity="1" y="14.375" transform="rotate(0)"><tspan id="SvgjsTspan1191" dy="16.25" x="50"><tspan id="SvgjsTspan1192" style="">NS R WE Y</tspan></tspan></text></g></g><g id="SvgjsG1193"><path id="SvgjsPath1194" d="M237 178.75L237 251L237 251L237 321.3" stroke="#323232" stroke-width="1.5" fill="none" marker-end="url(#SvgjsMarker1195)"></path><rect id="SvgjsRect1197" width="146.4" height="18" x="163.8" y="240.82972900704164" fill="#ffffff"></rect><text id="SvgjsText1198" font-family="微软雅黑" text-anchor="middle" font-size="13px" width="146.4px" fill="#323232" font-weight="400" align="top" lineHeight="16px" anchor="middle" family="微软雅黑" size="13px" weight="400" font-style="" opacity="1" y="238.20472900704164" transform="rotate(0)"><tspan id="SvgjsTspan1199" dy="16.25" x="236.8"><tspan id="SvgjsTspan1200" style="">t=40/NS:=Y,WE:=R,t:=1</tspan></tspan></text></g><g id="SvgjsG1201"><path id="SvgjsPath1202" d="M287.75 349L416.5 349L416.5 349L543.3 349" stroke="#323232" stroke-width="1.5" fill="none" marker-end="url(#SvgjsMarker1203)"></path><rect id="SvgjsRect1205" width="141.4" height="18" x="309.7978764478765" y="340" fill="#ffffff"></rect><text id="SvgjsText1206" font-family="微软雅黑" text-anchor="middle" font-size="13px" width="141.4px" fill="#323232" font-weight="400" align="top" lineHeight="16px" anchor="middle" family="微软雅黑" size="13px" weight="400" font-style="" opacity="1" y="337.375" transform="rotate(0)"><tspan id="SvgjsTspan1207" dy="16.25" x="380.2978764478765"><tspan id="SvgjsTspan1208" style="">t=5/NS:=R,WE:=G,t:=1</tspan></tspan></text></g><g id="SvgjsG1209"><path id="SvgjsPath1210" d="M596 323.25L596 251L596 251L596 180.7" stroke="#323232" stroke-width="1.5" fill="none" marker-end="url(#SvgjsMarker1211)"></path><rect id="SvgjsRect1213" width="146.4" height="18" x="522.8" y="242.975" fill="#ffffff"></rect><text id="SvgjsText1214" font-family="微软雅黑" text-anchor="middle" font-size="13px" width="146.4px" fill="#323232" font-weight="400" align="top" lineHeight="16px" anchor="middle" family="微软雅黑" size="13px" weight="400" font-style="" opacity="1" y="240.35" transform="rotate(0)"><tspan id="SvgjsTspan1215" dy="16.25" x="595.8"><tspan id="SvgjsTspan1216" style="">t=30/NS:=R,WE:=Y,t:=1</tspan></tspan></text></g><g id="SvgjsG1217"><path id="SvgjsPath1218" d="M545.25 153L416.5 153L416.5 153L289.70000000000005 153" stroke="#323232" stroke-width="1.5" fill="none" marker-end="url(#SvgjsMarker1219)"></path><rect id="SvgjsRect1221" width="141.4" height="18" x="325.56138996139003" y="144" fill="#ffffff"></rect><text id="SvgjsText1222" font-family="微软雅黑" text-anchor="middle" font-size="13px" width="141.4px" fill="#323232" font-weight="400" align="top" lineHeight="16px" anchor="middle" family="微软雅黑" size="13px" weight="400" font-style="" opacity="1" y="141.375" transform="rotate(0)"><tspan id="SvgjsTspan1223" dy="16.25" x="396.06138996139003"><tspan id="SvgjsTspan1224" style="">t=5/NS:=G,WE:=R,t:=1</tspan></tspan></text></g><g id="SvgjsG1225" transform="translate(187,25)"><path id="SvgjsPath1226" d="M 16.666666666666668 0L 83.33333333333333 0C 105.55555555555556 0 105.55555555555556 50 83.33333333333333 50L 16.666666666666668 50C -5.555555555555556 50 -5.555555555555556 0 16.666666666666668 0Z" stroke="rgba(33,41,48,1)" stroke-width="1.5" fill-opacity="1" fill="#ffffff"></path><g id="SvgjsG1227"><text id="SvgjsText1228" font-family="微软雅黑" text-anchor="middle" font-size="13px" width="80px" fill="#323232" font-weight="400" align="middle" lineHeight="125%" anchor="middle" family="微软雅黑" size="13px" weight="400" font-style="" opacity="1" y="14.375" transform="rotate(0)"><tspan id="SvgjsTspan1229" dy="16.25" x="50"><tspan id="SvgjsTspan1230" style="">NS Y WE Y</tspan></tspan></text></g></g><g id="SvgjsG1231"><path id="SvgjsPath1232" d="M237 75.75L237 101.5L237 101.5L237 125.30000000000001" stroke="#323232" stroke-width="1.5" fill="none" marker-end="url(#SvgjsMarker1233)"></path><rect id="SvgjsRect1235" width="141.4" height="18" x="166.3" y="81.70849056603774" fill="#ffffff"></rect><text id="SvgjsText1236" font-family="微软雅黑" text-anchor="middle" font-size="13px" width="141.4px" fill="#323232" font-weight="400" align="top" lineHeight="16px" anchor="middle" family="微软雅黑" size="13px" weight="400" font-style="" opacity="1" y="79.08349056603774" transform="rotate(0)"><tspan id="SvgjsTspan1237" dy="16.25" x="236.8"><tspan id="SvgjsTspan1238" style="">t=0/NS:=G,WE:=R,t:=1</tspan></tspan></text></g><g id="SvgjsG1239"><path id="SvgjsPath1240" d="M25 50L106 50L106 50L184.3 50" stroke="#323232" stroke-width="1.5" fill="none" marker-end="url(#SvgjsMarker1241)"></path></g></svg>