<svg id="SvgjsSvg1006" width="699.5" height="399" xmlns="http://www.w3.org/2000/svg" version="1.1" xmlns:xlink="http://www.w3.org/1999/xlink" xmlns:svgjs="http://svgjs.com/svgjs"><defs id="SvgjsDefs1007"><pattern patternUnits="userSpaceOnUse" id="pattern_mark_0" width="300" height="300"><text x="150" y="100" fill="rgba(229,229,229,0.8)" font-size="18" transform="rotate(-45, 150, 150)" style="dominant-baseline: middle; text-anchor: middle;"></text></pattern><pattern patternUnits="userSpaceOnUse" id="pattern_mark_1" width="300" height="300"><text x="150" y="200" fill="rgba(229,229,229,0.8)" font-size="18" transform="rotate(-45, 150, 150)" style="dominant-baseline: middle; text-anchor: middle;"></text></pattern><marker id="SvgjsMarker1037" markerWidth="13" markerHeight="9" refX="9.5" refY="4.5" viewBox="0 0 13 9" orient="auto" markerUnits="userSpaceOnUse" stroke-dasharray="0,0"><path id="SvgjsPath1038" d="M0,0 L13,4.5 L0,9 L0,0" fill="#323232" stroke="#323232" stroke-width="1"></path></marker><marker id="SvgjsMarker1045" markerWidth="13" markerHeight="9" refX="9.5" refY="4.5" viewBox="0 0 13 9" orient="auto" markerUnits="userSpaceOnUse" stroke-dasharray="0,0"><path id="SvgjsPath1046" d="M0,0 L13,4.5 L0,9 L0,0" fill="#323232" stroke="#323232" stroke-width="1"></path></marker><marker id="SvgjsMarker1053" markerWidth="13" markerHeight="9" refX="9.5" refY="4.5" viewBox="0 0 13 9" orient="auto" markerUnits="userSpaceOnUse" stroke-dasharray="0,0"><path id="SvgjsPath1054" d="M0,0 L13,4.5 L0,9 L0,0" fill="#323232" stroke="#323232" stroke-width="1"></path></marker><marker id="SvgjsMarker1061" markerWidth="13" markerHeight="9" refX="9.5" refY="4.5" viewBox="0 0 13 9" orient="auto" markerUnits="userSpaceOnUse" stroke-dasharray="0,0"><path id="SvgjsPath1062" d="M0,0 L13,4.5 L0,9 L0,0" fill="#323232" stroke="#323232" stroke-width="1"></path></marker><marker id="SvgjsMarker1075" markerWidth="13" markerHeight="9" refX="9.5" refY="4.5" viewBox="0 0 13 9" orient="auto" markerUnits="userSpaceOnUse" stroke-dasharray="0,0"><path id="SvgjsPath1076" d="M0,0 L13,4.5 L0,9 L0,0" fill="#323232" stroke="#323232" stroke-width="1"></path></marker><marker id="SvgjsMarker1083" markerWidth="13" markerHeight="9" refX="9.5" refY="4.5" viewBox="0 0 13 9" orient="auto" markerUnits="userSpaceOnUse" stroke-dasharray="0,0"><path id="SvgjsPath1084" d="M0,0 L13,4.5 L0,9 L0,0" fill="#323232" stroke="#323232" stroke-width="1"></path></marker></defs><rect id="svgbackgroundid" width="699.5" height="399" fill="transparent"></rect><rect id="SvgjsRect1009" width="699.5" height="399" fill="url(#pattern_mark_0)"></rect><rect id="SvgjsRect1010" width="699.5" height="399" fill="url(#pattern_mark_1)"></rect><g id="SvgjsG1011" transform="translate(187,128)"><path id="SvgjsPath1012" d="M 16.666666666666668 0L 83.33333333333333 0C 105.55555555555556 0 105.55555555555556 50 83.33333333333333 50L 16.666666666666668 50C -5.555555555555556 50 -5.555555555555556 0 16.666666666666668 0Z" stroke="rgba(33,41,48,1)" stroke-width="1.5" fill-opacity="1" fill="#ffffff"></path><g id="SvgjsG1013"><text id="SvgjsText1014" font-family="微软雅黑" text-anchor="middle" font-size="13px" width="80px" fill="#323232" font-weight="400" align="middle" lineHeight="125%" anchor="middle" family="微软雅黑" size="13px" weight="400" font-style="" opacity="1" y="14.375" transform="rotate(0)"><tspan id="SvgjsTspan1015" dy="16.25" x="50"><tspan id="SvgjsTspan1016" style="">NS G WE R</tspan></tspan></text></g></g><g id="SvgjsG1017" transform="translate(187,324)"><path id="SvgjsPath1018" d="M 16.666666666666668 0L 83.33333333333333 0C 105.55555555555556 0 105.55555555555556 50 83.33333333333333 50L 16.666666666666668 50C -5.555555555555556 50 -5.555555555555556 0 16.666666666666668 0Z" stroke="rgba(33,41,48,1)" stroke-width="1.5" fill-opacity="1" fill="#ffffff"></path><g id="SvgjsG1019"><text id="SvgjsText1020" font-family="微软雅黑" text-anchor="middle" font-size="13px" width="80px" fill="#323232" font-weight="400" align="middle" lineHeight="125%" anchor="middle" family="微软雅黑" size="13px" weight="400" font-style="" opacity="1" y="14.375" transform="rotate(0)"><tspan id="SvgjsTspan1021" dy="16.25" x="50"><tspan id="SvgjsTspan1022" style="">NS Y WE R</tspan></tspan></text></g></g><g id="SvgjsG1023" transform="translate(546,324)"><path id="SvgjsPath1024" d="M 16.666666666666668 0L 83.33333333333333 0C 105.55555555555556 0 105.55555555555556 50 83.33333333333333 50L 16.666666666666668 50C -5.555555555555556 50 -5.555555555555556 0 16.666666666666668 0Z" stroke="rgba(33,41,48,1)" stroke-width="1.5" fill-opacity="1" fill="#ffffff"></path><g id="SvgjsG1025"><text id="SvgjsText1026" font-family="微软雅黑" text-anchor="middle" font-size="13px" width="80px" fill="#323232" font-weight="400" align="middle" lineHeight="125%" anchor="middle" family="微软雅黑" size="13px" weight="400" font-style="" opacity="1" y="14.375" transform="rotate(0)"><tspan id="SvgjsTspan1027" dy="16.25" x="50"><tspan id="SvgjsTspan1028" style="">NS R WE G</tspan></tspan></text></g></g><g id="SvgjsG1029" transform="translate(546,128)"><path id="SvgjsPath1030" d="M 16.666666666666668 0L 83.33333333333333 0C 105.55555555555556 0 105.55555555555556 50 83.33333333333333 50L 16.666666666666668 50C -5.555555555555556 50 -5.555555555555556 0 16.666666666666668 0Z" stroke="rgba(33,41,48,1)" stroke-width="1.5" fill-opacity="1" fill="#ffffff"></path><g id="SvgjsG1031"><text id="SvgjsText1032" font-family="微软雅黑" text-anchor="middle" font-size="13px" width="80px" fill="#323232" font-weight="400" align="middle" lineHeight="125%" anchor="middle" family="微软雅黑" size="13px" weight="400" font-style="" opacity="1" y="14.375" transform="rotate(0)"><tspan id="SvgjsTspan1033" dy="16.25" x="50"><tspan id="SvgjsTspan1034" style="">NS R WE Y</tspan></tspan></text></g></g><g id="SvgjsG1035"><path id="SvgjsPath1036" d="M237 178.75L237 251L237 251L237 321.3" stroke="#323232" stroke-width="1.5" fill="none" marker-end="url(#SvgjsMarker1037)"></path><rect id="SvgjsRect1039" width="155.4" height="18" x="159.3" y="240.82972900704164" fill="#ffffff"></rect><text id="SvgjsText1040" font-family="微软雅黑" text-anchor="middle" font-size="13px" width="155.4px" fill="#323232" font-weight="400" align="top" lineHeight="16px" anchor="middle" family="微软雅黑" size="13px" weight="400" font-style="" opacity="1" y="238.20472900704164" transform="rotate(0)"><tspan id="SvgjsTspan1041" dy="16.25" x="236.8"><tspan id="SvgjsTspan1042" style="">t&gt;=40/NS:=Y,WE:=R,t:=0</tspan></tspan></text></g><g id="SvgjsG1043"><path id="SvgjsPath1044" d="M287.75 349L416.5 349L416.5 349L543.3 349" stroke="#323232" stroke-width="1.5" fill="none" marker-end="url(#SvgjsMarker1045)"></path><rect id="SvgjsRect1047" width="151.4" height="18" x="304.7978764478765" y="340" fill="#ffffff"></rect><text id="SvgjsText1048" font-family="微软雅黑" text-anchor="middle" font-size="13px" width="151.4px" fill="#323232" font-weight="400" align="top" lineHeight="16px" anchor="middle" family="微软雅黑" size="13px" weight="400" font-style="" opacity="1" y="337.375" transform="rotate(0)"><tspan id="SvgjsTspan1049" dy="16.25" x="380.2978764478765"><tspan id="SvgjsTspan1050" style="">t&gt;=5/NS:=R,WE:=G,t:=0</tspan></tspan></text></g><g id="SvgjsG1051"><path id="SvgjsPath1052" d="M596 323.25L596 251L596 251L596 180.7" stroke="#323232" stroke-width="1.5" fill="none" marker-end="url(#SvgjsMarker1053)"></path><rect id="SvgjsRect1055" width="155.4" height="18" x="518.3" y="242.975" fill="#ffffff"></rect><text id="SvgjsText1056" font-family="微软雅黑" text-anchor="middle" font-size="13px" width="155.4px" fill="#323232" font-weight="400" align="top" lineHeight="16px" anchor="middle" family="微软雅黑" size="13px" weight="400" font-style="" opacity="1" y="240.35" transform="rotate(0)"><tspan id="SvgjsTspan1057" dy="16.25" x="595.8"><tspan id="SvgjsTspan1058" style="">t&gt;=30/NS:=R,WE:=Y,t:=0</tspan></tspan></text></g><g id="SvgjsG1059"><path id="SvgjsPath1060" d="M545.25 153L416.5 153L416.5 153L289.70000000000005 153" stroke="#323232" stroke-width="1.5" fill="none" marker-end="url(#SvgjsMarker1061)"></path><rect id="SvgjsRect1063" width="151.4" height="18" x="320.56138996139003" y="144" fill="#ffffff"></rect><text id="SvgjsText1064" font-family="微软雅黑" text-anchor="middle" font-size="13px" width="151.4px" fill="#323232" font-weight="400" align="top" lineHeight="16px" anchor="middle" family="微软雅黑" size="13px" weight="400" font-style="" opacity="1" y="141.375" transform="rotate(0)"><tspan id="SvgjsTspan1065" dy="16.25" x="396.06138996139003"><tspan id="SvgjsTspan1066" style="">t&gt;=5/NS:=G,WE:=R,t:=0</tspan></tspan></text></g><g id="SvgjsG1067" transform="translate(187,25)"><path id="SvgjsPath1068" d="M 16.666666666666668 0L 83.33333333333333 0C 105.55555555555556 0 105.55555555555556 50 83.33333333333333 50L 16.666666666666668 50C -5.555555555555556 50 -5.555555555555556 0 16.666666666666668 0Z" stroke="rgba(33,41,48,1)" stroke-width="1.5" fill-opacity="1" fill="#ffffff"></path><g id="SvgjsG1069"><text id="SvgjsText1070" font-family="微软雅黑" text-anchor="middle" font-size="13px" width="80px" fill="#323232" font-weight="400" align="middle" lineHeight="125%" anchor="middle" family="微软雅黑" size="13px" weight="400" font-style="" opacity="1" y="14.375" transform="rotate(0)"><tspan id="SvgjsTspan1071" dy="16.25" x="50"><tspan id="SvgjsTspan1072" style="">NS Y WE Y</tspan></tspan></text></g></g><g id="SvgjsG1073"><path id="SvgjsPath1074" d="M237 75.75L237 101.5L237 101.5L237 125.30000000000001" stroke="#323232" stroke-width="1.5" fill="none" marker-end="url(#SvgjsMarker1075)"></path><rect id="SvgjsRect1077" width="151.4" height="18" x="161.3" y="81.70849056603774" fill="#ffffff"></rect><text id="SvgjsText1078" font-family="微软雅黑" text-anchor="middle" font-size="13px" width="151.4px" fill="#323232" font-weight="400" align="top" lineHeight="16px" anchor="middle" family="微软雅黑" size="13px" weight="400" font-style="" opacity="1" y="79.08349056603774" transform="rotate(0)"><tspan id="SvgjsTspan1079" dy="16.25" x="236.8"><tspan id="SvgjsTspan1080" style="">t&gt;=0/NS:=G,WE:=R,t:=0</tspan></tspan></text></g><g id="SvgjsG1081"><path id="SvgjsPath1082" d="M25 50L106 50L106 50L184.3 50" stroke="#323232" stroke-width="1.5" fill="none" marker-end="url(#SvgjsMarker1083)"></path></g></svg>