<svg id="SvgjsSvg1006" width="622" height="559" xmlns="http://www.w3.org/2000/svg" version="1.1" xmlns:xlink="http://www.w3.org/1999/xlink" xmlns:svgjs="http://svgjs.com/svgjs"><defs id="SvgjsDefs1007"><pattern patternUnits="userSpaceOnUse" id="pattern_mark_0" width="300" height="300"><text x="150" y="100" fill="rgba(229,229,229,0.8)" font-size="18" transform="rotate(-45, 150, 150)" style="dominant-baseline: middle; text-anchor: middle;"></text></pattern><pattern patternUnits="userSpaceOnUse" id="pattern_mark_1" width="300" height="300"><text x="150" y="200" fill="rgba(229,229,229,0.8)" font-size="18" transform="rotate(-45, 150, 150)" style="dominant-baseline: middle; text-anchor: middle;"></text></pattern><marker id="SvgjsMarker1037" markerWidth="13" markerHeight="9" refX="9.5" refY="4.5" viewBox="0 0 13 9" orient="auto" markerUnits="userSpaceOnUse" stroke-dasharray="0,0"><path id="SvgjsPath1038" d="M0,0 L13,4.5 L0,9 L0,0" fill="#323232" stroke="#323232" stroke-width="1"></path></marker><marker id="SvgjsMarker1051" markerWidth="13" markerHeight="9" refX="9.5" refY="4.5" viewBox="0 0 13 9" orient="auto" markerUnits="userSpaceOnUse" stroke-dasharray="0,0"><path id="SvgjsPath1052" d="M0,0 L13,4.5 L0,9 L0,0" fill="#323232" stroke="#323232" stroke-width="1"></path></marker><marker id="SvgjsMarker1059" markerWidth="13" markerHeight="9" refX="9.5" refY="4.5" viewBox="0 0 13 9" orient="auto" markerUnits="userSpaceOnUse" stroke-dasharray="0,0"><path id="SvgjsPath1060" d="M0,0 L13,4.5 L0,9 L0,0" fill="#323232" stroke="#323232" stroke-width="1"></path></marker><marker id="SvgjsMarker1067" markerWidth="13" markerHeight="9" refX="9.5" refY="4.5" viewBox="0 0 13 9" orient="auto" markerUnits="userSpaceOnUse" stroke-dasharray="0,0"><path id="SvgjsPath1068" d="M0,0 L13,4.5 L0,9 L0,0" fill="#323232" stroke="#323232" stroke-width="1"></path></marker><marker id="SvgjsMarker1075" markerWidth="13" markerHeight="9" refX="9.5" refY="4.5" viewBox="0 0 13 9" orient="auto" markerUnits="userSpaceOnUse" stroke-dasharray="0,0"><path id="SvgjsPath1076" d="M0,0 L13,4.5 L0,9 L0,0" fill="#323232" stroke="#323232" stroke-width="1"></path></marker><marker id="SvgjsMarker1089" markerWidth="13" markerHeight="9" refX="9.5" refY="4.5" viewBox="0 0 13 9" orient="auto" markerUnits="userSpaceOnUse" stroke-dasharray="0,0"><path id="SvgjsPath1090" d="M0,0 L13,4.5 L0,9 L0,0" fill="#323232" stroke="#323232" stroke-width="1"></path></marker><marker id="SvgjsMarker1103" markerWidth="13" markerHeight="9" refX="9.5" refY="4.5" viewBox="0 0 13 9" orient="auto" markerUnits="userSpaceOnUse" stroke-dasharray="0,0"><path id="SvgjsPath1104" d="M0,0 L13,4.5 L0,9 L0,0" fill="#323232" stroke="#323232" stroke-width="1"></path></marker><marker id="SvgjsMarker1117" markerWidth="13" markerHeight="9" refX="9.5" refY="4.5" viewBox="0 0 13 9" orient="auto" markerUnits="userSpaceOnUse" stroke-dasharray="0,0"><path id="SvgjsPath1118" d="M0,0 L13,4.5 L0,9 L0,0" fill="#323232" stroke="#323232" stroke-width="1"></path></marker><marker id="SvgjsMarker1131" markerWidth="13" markerHeight="9" refX="9.5" refY="4.5" viewBox="0 0 13 9" orient="auto" markerUnits="userSpaceOnUse" stroke-dasharray="0,0"><path id="SvgjsPath1132" d="M0,0 L13,4.5 L0,9 L0,0" fill="#323232" stroke="#323232" stroke-width="1"></path></marker><marker id="SvgjsMarker1139" markerWidth="13" markerHeight="9" refX="9.5" refY="4.5" viewBox="0 0 13 9" orient="auto" markerUnits="userSpaceOnUse" stroke-dasharray="0,0"><path id="SvgjsPath1140" d="M0,0 L13,4.5 L0,9 L0,0" fill="#323232" stroke="#323232" stroke-width="1"></path></marker><marker id="SvgjsMarker1147" markerWidth="13" markerHeight="9" refX="9.5" refY="4.5" viewBox="0 0 13 9" orient="auto" markerUnits="userSpaceOnUse" stroke-dasharray="0,0"><path id="SvgjsPath1148" d="M0,0 L13,4.5 L0,9 L0,0" fill="#323232" stroke="#323232" stroke-width="1"></path></marker><marker id="SvgjsMarker1155" markerWidth="13" markerHeight="9" refX="9.5" refY="4.5" viewBox="0 0 13 9" orient="auto" markerUnits="userSpaceOnUse" stroke-dasharray="0,0"><path id="SvgjsPath1156" d="M0,0 L13,4.5 L0,9 L0,0" fill="#323232" stroke="#323232" stroke-width="1"></path></marker><marker id="SvgjsMarker1163" markerWidth="13" markerHeight="9" refX="9.5" refY="4.5" viewBox="0 0 13 9" orient="auto" markerUnits="userSpaceOnUse" stroke-dasharray="0,0"><path id="SvgjsPath1164" d="M0,0 L13,4.5 L0,9 L0,0" fill="#323232" stroke="#323232" stroke-width="1"></path></marker></defs><rect id="svgbackgroundid" width="622" height="559" fill="transparent"></rect><rect id="SvgjsRect1009" width="622" height="559" fill="url(#pattern_mark_0)"></rect><rect id="SvgjsRect1010" width="622" height="559" fill="url(#pattern_mark_1)"></rect><g id="SvgjsG1011" transform="translate(424,55)"><path id="SvgjsPath1012" d="M 16.666666666666668 0L 83.33333333333333 0C 105.55555555555556 0 105.55555555555556 50 83.33333333333333 50L 16.666666666666668 50C -5.555555555555556 50 -5.555555555555556 0 16.666666666666668 0Z" stroke="rgba(33,41,48,1)" stroke-width="1.5" fill-opacity="1" fill="#ffffff"></path><g id="SvgjsG1013"><text id="SvgjsText1014" font-family="微软雅黑" text-anchor="middle" font-size="13px" width="80px" fill="#323232" font-weight="400" align="middle" lineHeight="125%" anchor="middle" family="微软雅黑" size="13px" weight="400" font-style="" opacity="1" y="14.375" transform="rotate(0)"><tspan id="SvgjsTspan1015" dy="16.25" x="50"><tspan id="SvgjsTspan1016" style="">0元/0个|0元</tspan></tspan></text></g></g><g id="SvgjsG1017" transform="translate(424,165)"><path id="SvgjsPath1018" d="M 16.666666666666668 0L 83.33333333333333 0C 105.55555555555556 0 105.55555555555556 50 83.33333333333333 50L 16.666666666666668 50C -5.555555555555556 50 -5.555555555555556 0 16.666666666666668 0Z" stroke="rgba(33,41,48,1)" stroke-width="1.5" fill-opacity="1" fill="#ffffff"></path><g id="SvgjsG1019"><text id="SvgjsText1020" font-family="微软雅黑" text-anchor="middle" font-size="13px" width="80px" fill="#323232" font-weight="400" align="middle" lineHeight="125%" anchor="middle" family="微软雅黑" size="13px" weight="400" font-style="" opacity="1" y="14.375" transform="rotate(0)"><tspan id="SvgjsTspan1021" dy="16.25" x="50"><tspan id="SvgjsTspan1022" style="">1元/0个|0元</tspan></tspan></text></g></g><g id="SvgjsG1023" transform="translate(424,266)"><path id="SvgjsPath1024" d="M 16.666666666666668 0L 83.33333333333333 0C 105.55555555555556 0 105.55555555555556 50 83.33333333333333 50L 16.666666666666668 50C -5.555555555555556 50 -5.555555555555556 0 16.666666666666668 0Z" stroke="rgba(33,41,48,1)" stroke-width="1.5" fill-opacity="1" fill="#ffffff"></path><g id="SvgjsG1025"><text id="SvgjsText1026" font-family="微软雅黑" text-anchor="middle" font-size="13px" width="80px" fill="#323232" font-weight="400" align="middle" lineHeight="125%" anchor="middle" family="微软雅黑" size="13px" weight="400" font-style="" opacity="1" y="14.375" transform="rotate(0)"><tspan id="SvgjsTspan1027" dy="16.25" x="50"><tspan id="SvgjsTspan1028" style="">2元/0个|0元</tspan></tspan></text></g></g><g id="SvgjsG1029" transform="translate(424,375)"><path id="SvgjsPath1030" d="M 16.666666666666668 0L 83.33333333333333 0C 105.55555555555556 0 105.55555555555556 50 83.33333333333333 50L 16.666666666666668 50C -5.555555555555556 50 -5.555555555555556 0 16.666666666666668 0Z" stroke="rgba(33,41,48,1)" stroke-width="1.5" fill-opacity="1" fill="#ffffff"></path><g id="SvgjsG1031"><text id="SvgjsText1032" font-family="微软雅黑" text-anchor="middle" font-size="13px" width="80px" fill="#323232" font-weight="400" align="middle" lineHeight="125%" anchor="middle" family="微软雅黑" size="13px" weight="400" font-style="" opacity="1" y="14.375" transform="rotate(0)"><tspan id="SvgjsTspan1033" dy="16.25" x="50"><tspan id="SvgjsTspan1034" style="">3元/0个|0元</tspan></tspan></text></g></g><g id="SvgjsG1035"><path id="SvgjsPath1036" d="M474 105.75L474 135L474 135L474 162.3" stroke="#323232" stroke-width="1.5" fill="none" marker-end="url(#SvgjsMarker1037)"></path><rect id="SvgjsRect1039" width="21" height="16" x="463.49999999999994" y="108.11749999999999" fill="#ffffff"></rect><text id="SvgjsText1040" font-family="微软雅黑" text-anchor="middle" font-size="13px" width="21px" fill="#323232" font-weight="400" align="top" lineHeight="16px" anchor="middle" family="微软雅黑" size="13px" weight="400" font-style="" opacity="1" y="105.49249999999999" transform="rotate(0)"><tspan id="SvgjsTspan1041" dy="16.25" x="473.99999999999994"><tspan id="SvgjsTspan1042" style="">1元</tspan></tspan></text></g><g id="SvgjsG1043" transform="translate(262,55)"><path id="SvgjsPath1044" d="M 16.666666666666668 0L 83.33333333333333 0C 105.55555555555556 0 105.55555555555556 50 83.33333333333333 50L 16.666666666666668 50C -5.555555555555556 50 -5.555555555555556 0 16.666666666666668 0Z" stroke="rgba(33,41,48,1)" stroke-width="1.5" fill-opacity="1" fill="#ffffff"></path><g id="SvgjsG1045"><text id="SvgjsText1046" font-family="微软雅黑" text-anchor="middle" font-size="13px" width="80px" fill="#323232" font-weight="400" align="middle" lineHeight="125%" anchor="middle" family="微软雅黑" size="13px" weight="400" font-style="" opacity="1" y="14.375" transform="rotate(0)"><tspan id="SvgjsTspan1047" dy="16.25" x="50"><tspan id="SvgjsTspan1048" style="">10元/1个|6元</tspan></tspan></text></g></g><g id="SvgjsG1049"><path id="SvgjsPath1050" d="M474 215.75L474 240.5L474 240.5L474 263.3" stroke="#323232" stroke-width="1.5" fill="none" marker-end="url(#SvgjsMarker1051)"></path><rect id="SvgjsRect1053" width="21" height="16" x="463.5" y="226.39705882352945" fill="#ffffff"></rect><text id="SvgjsText1054" font-family="微软雅黑" text-anchor="middle" font-size="13px" width="21px" fill="#323232" font-weight="400" align="top" lineHeight="16px" anchor="middle" family="微软雅黑" size="13px" weight="400" font-style="" opacity="1" y="223.77205882352945" transform="rotate(0)"><tspan id="SvgjsTspan1055" dy="16.25" x="474"><tspan id="SvgjsTspan1056" style="">1元</tspan></tspan></text></g><g id="SvgjsG1057"><path id="SvgjsPath1058" d="M474 316.75L474 345.5L474 345.5L474 372.3" stroke="#323232" stroke-width="1.5" fill="none" marker-end="url(#SvgjsMarker1059)"></path><rect id="SvgjsRect1061" width="21" height="16" x="463.5" y="329.4635593220339" fill="#ffffff"></rect><text id="SvgjsText1062" font-family="微软雅黑" text-anchor="middle" font-size="13px" width="21px" fill="#323232" font-weight="400" align="top" lineHeight="16px" anchor="middle" family="微软雅黑" size="13px" weight="400" font-style="" opacity="1" y="326.8385593220339" transform="rotate(0)"><tspan id="SvgjsTspan1063" dy="16.25" x="474"><tspan id="SvgjsTspan1064" style="">1元</tspan></tspan></text></g><g id="SvgjsG1065"><path id="SvgjsPath1066" d="M423.25 80L393 80L393 80L364.7 80" stroke="#323232" stroke-width="1.5" fill="none" marker-end="url(#SvgjsMarker1067)"></path><rect id="SvgjsRect1069" width="28" height="16" x="383.7524193548387" y="72" fill="#ffffff"></rect><text id="SvgjsText1070" font-family="微软雅黑" text-anchor="middle" font-size="13px" width="28px" fill="#323232" font-weight="400" align="top" lineHeight="16px" anchor="middle" family="微软雅黑" size="13px" weight="400" font-style="" opacity="1" y="69.375" transform="rotate(0)"><tspan id="SvgjsTspan1071" dy="16.25" x="397.7524193548387"><tspan id="SvgjsTspan1072" style="">10元</tspan></tspan></text></g><g id="SvgjsG1073"><path id="SvgjsPath1074" d="M423.25 190L393 190L393 190L364.7 190" stroke="#323232" stroke-width="1.5" fill="none" marker-end="url(#SvgjsMarker1075)"></path><rect id="SvgjsRect1077" width="28" height="16" x="381.8637096774193" y="182" fill="#ffffff"></rect><text id="SvgjsText1078" font-family="微软雅黑" text-anchor="middle" font-size="13px" width="28px" fill="#323232" font-weight="400" align="top" lineHeight="16px" anchor="middle" family="微软雅黑" size="13px" weight="400" font-style="" opacity="1" y="179.375" transform="rotate(0)"><tspan id="SvgjsTspan1079" dy="16.25" x="395.8637096774193"><tspan id="SvgjsTspan1080" style="">10元</tspan></tspan></text></g><g id="SvgjsG1081" transform="translate(262,165)"><path id="SvgjsPath1082" d="M 16.666666666666668 0L 83.33333333333333 0C 105.55555555555556 0 105.55555555555556 50 83.33333333333333 50L 16.666666666666668 50C -5.555555555555556 50 -5.555555555555556 0 16.666666666666668 0Z" stroke="rgba(33,41,48,1)" stroke-width="1.5" fill-opacity="1" fill="#ffffff"></path><g id="SvgjsG1083"><text id="SvgjsText1084" font-family="微软雅黑" text-anchor="middle" font-size="13px" width="80px" fill="#323232" font-weight="400" align="middle" lineHeight="125%" anchor="middle" family="微软雅黑" size="13px" weight="400" font-style="" opacity="1" y="14.375" transform="rotate(0)"><tspan id="SvgjsTspan1085" dy="16.25" x="50"><tspan id="SvgjsTspan1086" style="">11元/1个|7元</tspan></tspan></text></g></g><g id="SvgjsG1087"><path id="SvgjsPath1088" d="M423.25 291L393 291L393 291L364.7 291" stroke="#323232" stroke-width="1.5" fill="none" marker-end="url(#SvgjsMarker1089)"></path><rect id="SvgjsRect1091" width="28" height="16" x="386.5854838709678" y="283" fill="#ffffff"></rect><text id="SvgjsText1092" font-family="微软雅黑" text-anchor="middle" font-size="13px" width="28px" fill="#323232" font-weight="400" align="top" lineHeight="16px" anchor="middle" family="微软雅黑" size="13px" weight="400" font-style="" opacity="1" y="280.375" transform="rotate(0)"><tspan id="SvgjsTspan1093" dy="16.25" x="400.5854838709678"><tspan id="SvgjsTspan1094" style="">10元</tspan></tspan></text></g><g id="SvgjsG1095" transform="translate(262,266)"><path id="SvgjsPath1096" d="M 16.666666666666668 0L 83.33333333333333 0C 105.55555555555556 0 105.55555555555556 50 83.33333333333333 50L 16.666666666666668 50C -5.555555555555556 50 -5.555555555555556 0 16.666666666666668 0Z" stroke="rgba(33,41,48,1)" stroke-width="1.5" fill-opacity="1" fill="#ffffff"></path><g id="SvgjsG1097"><text id="SvgjsText1098" font-family="微软雅黑" text-anchor="middle" font-size="13px" width="80px" fill="#323232" font-weight="400" align="middle" lineHeight="125%" anchor="middle" family="微软雅黑" size="13px" weight="400" font-style="" opacity="1" y="14.375" transform="rotate(0)"><tspan id="SvgjsTspan1099" dy="16.25" x="50"><tspan id="SvgjsTspan1100" style="">12元/1个|8元</tspan></tspan></text></g></g><g id="SvgjsG1101"><path id="SvgjsPath1102" d="M423.25 400L391 400L391 400L360.7 400" stroke="#323232" stroke-width="1.5" fill="none" marker-end="url(#SvgjsMarker1103)"></path><rect id="SvgjsRect1105" width="28" height="16" x="391.2431818181818" y="392" fill="#ffffff"></rect><text id="SvgjsText1106" font-family="微软雅黑" text-anchor="middle" font-size="13px" width="28px" fill="#323232" font-weight="400" align="top" lineHeight="16px" anchor="middle" family="微软雅黑" size="13px" weight="400" font-style="" opacity="1" y="389.375" transform="rotate(0)"><tspan id="SvgjsTspan1107" dy="16.25" x="405.2431818181818"><tspan id="SvgjsTspan1108" style="">10元</tspan></tspan></text></g><g id="SvgjsG1109" transform="translate(258,375)"><path id="SvgjsPath1110" d="M 16.666666666666668 0L 83.33333333333333 0C 105.55555555555556 0 105.55555555555556 50 83.33333333333333 50L 16.666666666666668 50C -5.555555555555556 50 -5.555555555555556 0 16.666666666666668 0Z" stroke="rgba(33,41,48,1)" stroke-width="1.5" fill-opacity="1" fill="#ffffff"></path><g id="SvgjsG1111"><text id="SvgjsText1112" font-family="微软雅黑" text-anchor="middle" font-size="13px" width="80px" fill="#323232" font-weight="400" align="middle" lineHeight="125%" anchor="middle" family="微软雅黑" size="13px" weight="400" font-style="" opacity="1" y="14.375" transform="rotate(0)"><tspan id="SvgjsTspan1113" dy="16.25" x="50"><tspan id="SvgjsTspan1114" style="">13元/1个|9元</tspan></tspan></text></g></g><g id="SvgjsG1115"><path id="SvgjsPath1116" d="M474 425.75L474 454.5L474 454.5L474 481.29999999999995" stroke="#323232" stroke-width="1.5" fill="none" marker-end="url(#SvgjsMarker1117)"></path><rect id="SvgjsRect1119" width="21" height="16" x="463.5" y="443.17118644067796" fill="#ffffff"></rect><text id="SvgjsText1120" font-family="微软雅黑" text-anchor="middle" font-size="13px" width="21px" fill="#323232" font-weight="400" align="top" lineHeight="16px" anchor="middle" family="微软雅黑" size="13px" weight="400" font-style="" opacity="1" y="440.54618644067796" transform="rotate(0)"><tspan id="SvgjsTspan1121" dy="16.25" x="474"><tspan id="SvgjsTspan1122" style="">1元</tspan></tspan></text></g><g id="SvgjsG1123" transform="translate(424,484)"><path id="SvgjsPath1124" d="M 16.666666666666668 0L 83.33333333333333 0C 105.55555555555556 0 105.55555555555556 50 83.33333333333333 50L 16.666666666666668 50C -5.555555555555556 50 -5.555555555555556 0 16.666666666666668 0Z" stroke="rgba(33,41,48,1)" stroke-width="1.5" fill-opacity="1" fill="#ffffff"></path><g id="SvgjsG1125"><text id="SvgjsText1126" font-family="微软雅黑" text-anchor="middle" font-size="13px" width="80px" fill="#323232" font-weight="400" align="middle" lineHeight="125%" anchor="middle" family="微软雅黑" size="13px" weight="400" font-style="" opacity="1" y="14.375" transform="rotate(0)"><tspan id="SvgjsTspan1127" dy="16.25" x="50"><tspan id="SvgjsTspan1128" style="">4元/1个|0元</tspan></tspan></text></g></g><g id="SvgjsG1129"><path id="SvgjsPath1130" d="M524.75 509L592 509L592 80L526.7 80" stroke="#323232" stroke-width="1.5" fill="none" marker-end="url(#SvgjsMarker1131)"></path><rect id="SvgjsRect1133" width="8" height="16" x="588" y="108.07716814159296" fill="#ffffff"></rect><text id="SvgjsText1134" font-family="微软雅黑" text-anchor="middle" font-size="13px" width="8px" fill="#323232" font-weight="400" align="top" lineHeight="16px" anchor="middle" family="微软雅黑" size="13px" weight="400" font-style="" opacity="1" y="105.45216814159296" transform="rotate(0)"><tspan id="SvgjsTspan1135" dy="16.25" x="592"><tspan id="SvgjsTspan1136" style="">X</tspan></tspan></text></g><g id="SvgjsG1137"><path id="SvgjsPath1138" d="M261.25 80L232 80L232 25L474 25L474 52.30000000000001" stroke="#323232" stroke-width="1.5" fill="none" marker-end="url(#SvgjsMarker1139)"></path><rect id="SvgjsRect1141" width="8" height="16" x="228" y="35.88781512605041" fill="#ffffff"></rect><text id="SvgjsText1142" font-family="微软雅黑" text-anchor="middle" font-size="13px" width="8px" fill="#323232" font-weight="400" align="top" lineHeight="16px" anchor="middle" family="微软雅黑" size="13px" weight="400" font-style="" opacity="1" y="33.26281512605041" transform="rotate(0)"><tspan id="SvgjsTspan1143" dy="16.25" x="232"><tspan id="SvgjsTspan1144" style="">X</tspan></tspan></text></g><g id="SvgjsG1145"><path id="SvgjsPath1146" d="M261.25 190L170 190L170 25L474 25L474 52.30000000000001" stroke="#323232" stroke-width="1.5" fill="none" marker-end="url(#SvgjsMarker1147)"></path><rect id="SvgjsRect1149" width="8" height="16" x="166" y="33.656852791878194" fill="#ffffff"></rect><text id="SvgjsText1150" font-family="微软雅黑" text-anchor="middle" font-size="13px" width="8px" fill="#323232" font-weight="400" align="top" lineHeight="16px" anchor="middle" family="微软雅黑" size="13px" weight="400" font-style="" opacity="1" y="31.031852791878194" transform="rotate(0)"><tspan id="SvgjsTspan1151" dy="16.25" x="170"><tspan id="SvgjsTspan1152" style="">X</tspan></tspan></text></g><g id="SvgjsG1153"><path id="SvgjsPath1154" d="M261.25 291L104 291L104 25L474 25L474 52.30000000000001" stroke="#323232" stroke-width="1.5" fill="none" marker-end="url(#SvgjsMarker1155)"></path><rect id="SvgjsRect1157" width="8" height="16" x="100" y="29.975000000000016" fill="#ffffff"></rect><text id="SvgjsText1158" font-family="微软雅黑" text-anchor="middle" font-size="13px" width="8px" fill="#323232" font-weight="400" align="top" lineHeight="16px" anchor="middle" family="微软雅黑" size="13px" weight="400" font-style="" opacity="1" y="27.350000000000016" transform="rotate(0)"><tspan id="SvgjsTspan1159" dy="16.25" x="104"><tspan id="SvgjsTspan1160" style="">X</tspan></tspan></text></g><g id="SvgjsG1161"><path id="SvgjsPath1162" d="M257.25 400L30 400L30 25L474 25L474 52.30000000000001" stroke="#323232" stroke-width="1.5" fill="none" marker-end="url(#SvgjsMarker1163)"></path><rect id="SvgjsRect1165" width="8" height="16" x="26" y="37.12075208913655" fill="#ffffff"></rect><text id="SvgjsText1166" font-family="微软雅黑" text-anchor="middle" font-size="13px" width="8px" fill="#323232" font-weight="400" align="top" lineHeight="16px" anchor="middle" family="微软雅黑" size="13px" weight="400" font-style="" opacity="1" y="34.49575208913655" transform="rotate(0)"><tspan id="SvgjsTspan1167" dy="16.25" x="30"><tspan id="SvgjsTspan1168" style="">X</tspan></tspan></text></g></svg>