<svg id="SvgjsSvg1006" width="410" height="440" xmlns="http://www.w3.org/2000/svg" version="1.1" xmlns:xlink="http://www.w3.org/1999/xlink" xmlns:svgjs="http://svgjs.com/svgjs"><defs id="SvgjsDefs1007"><pattern patternUnits="userSpaceOnUse" id="pattern_mark_0" width="300" height="300"><text x="150" y="100" fill="rgba(229,229,229,0.8)" font-size="18" transform="rotate(-45, 150, 150)" style="dominant-baseline: middle; text-anchor: middle;"></text></pattern><pattern patternUnits="userSpaceOnUse" id="pattern_mark_1" width="300" height="300"><text x="150" y="200" fill="rgba(229,229,229,0.8)" font-size="18" transform="rotate(-45, 150, 150)" style="dominant-baseline: middle; text-anchor: middle;"></text></pattern><marker id="SvgjsMarker1037" markerWidth="13" markerHeight="9" refX="9.5" refY="4.5" viewBox="0 0 13 9" orient="auto" markerUnits="userSpaceOnUse" stroke-dasharray="0,0"><path id="SvgjsPath1038" d="M0,0 L13,4.5 L0,9 L0,0" fill="#323232" stroke="#323232" stroke-width="1"></path></marker><marker id="SvgjsMarker1045" markerWidth="13" markerHeight="9" refX="9.5" refY="4.5" viewBox="0 0 13 9" orient="auto" markerUnits="userSpaceOnUse" stroke-dasharray="0,0"><path id="SvgjsPath1046" d="M0,0 L13,4.5 L0,9 L0,0" fill="#323232" stroke="#323232" stroke-width="1"></path></marker><marker id="SvgjsMarker1053" markerWidth="13" markerHeight="9" refX="9.5" refY="4.5" viewBox="0 0 13 9" orient="auto" markerUnits="userSpaceOnUse" stroke-dasharray="0,0"><path id="SvgjsPath1054" d="M0,0 L13,4.5 L0,9 L0,0" fill="#323232" stroke="#323232" stroke-width="1"></path></marker><marker id="SvgjsMarker1061" markerWidth="13" markerHeight="9" refX="9.5" refY="4.5" viewBox="0 0 13 9" orient="auto" markerUnits="userSpaceOnUse" stroke-dasharray="0,0"><path id="SvgjsPath1062" d="M0,0 L13,4.5 L0,9 L0,0" fill="#323232" stroke="#323232" stroke-width="1"></path></marker><marker id="SvgjsMarker1069" markerWidth="13" markerHeight="9" refX="9.5" refY="4.5" viewBox="0 0 13 9" orient="auto" markerUnits="userSpaceOnUse" stroke-dasharray="0,0"><path id="SvgjsPath1070" d="M0,0 L13,4.5 L0,9 L0,0" fill="#323232" stroke="#323232" stroke-width="1"></path></marker><marker id="SvgjsMarker1077" markerWidth="13" markerHeight="9" refX="9.5" refY="4.5" viewBox="0 0 13 9" orient="auto" markerUnits="userSpaceOnUse" stroke-dasharray="0,0"><path id="SvgjsPath1078" d="M0,0 L13,4.5 L0,9 L0,0" fill="#323232" stroke="#323232" stroke-width="1"></path></marker><marker id="SvgjsMarker1085" markerWidth="13" markerHeight="9" refX="9.5" refY="4.5" viewBox="0 0 13 9" orient="auto" markerUnits="userSpaceOnUse" stroke-dasharray="0,0"><path id="SvgjsPath1086" d="M0,0 L13,4.5 L0,9 L0,0" fill="#323232" stroke="#323232" stroke-width="1"></path></marker><marker id="SvgjsMarker1093" markerWidth="13" markerHeight="9" refX="9.5" refY="4.5" viewBox="0 0 13 9" orient="auto" markerUnits="userSpaceOnUse" stroke-dasharray="0,0"><path id="SvgjsPath1094" d="M0,0 L13,4.5 L0,9 L0,0" fill="#323232" stroke="#323232" stroke-width="1"></path></marker><marker id="SvgjsMarker1101" markerWidth="13" markerHeight="9" refX="9.5" refY="4.5" viewBox="0 0 13 9" orient="auto" markerUnits="userSpaceOnUse" stroke-dasharray="0,0"><path id="SvgjsPath1102" d="M0,0 L13,4.5 L0,9 L0,0" fill="#323232" stroke="#323232" stroke-width="1"></path></marker></defs><rect id="svgbackgroundid" width="410" height="440" fill="transparent"></rect><rect id="SvgjsRect1009" width="410" height="440" fill="url(#pattern_mark_0)"></rect><rect id="SvgjsRect1010" width="410" height="440" fill="url(#pattern_mark_1)"></rect><g id="SvgjsG1011" transform="translate(55,112)"><path id="SvgjsPath1012" d="M 0 35C 0 -11.666666666666666 70 -11.666666666666666 70 35C 70 81.66666666666667 0 81.66666666666667 0 35Z" stroke="rgba(33,41,48,1)" stroke-width="1.5" fill-opacity="1" fill="#ffffff"></path><g id="SvgjsG1013"><text id="SvgjsText1014" font-family="微软雅黑" text-anchor="middle" font-size="13px" width="50px" fill="#323232" font-weight="400" align="middle" lineHeight="125%" anchor="middle" family="微软雅黑" size="13px" weight="400" font-style="" opacity="1" y="24.375" transform="rotate(0)"><tspan id="SvgjsTspan1015" dy="16.25" x="35"><tspan id="SvgjsTspan1016" style="">S0/0</tspan></tspan></text></g></g><g id="SvgjsG1017" transform="translate(55,306)"><path id="SvgjsPath1018" d="M 0 35C 0 -11.666666666666666 70 -11.666666666666666 70 35C 70 81.66666666666667 0 81.66666666666667 0 35Z" stroke="rgba(33,41,48,1)" stroke-width="1.5" fill-opacity="1" fill="#ffffff"></path><g id="SvgjsG1019"><text id="SvgjsText1020" font-family="微软雅黑" text-anchor="middle" font-size="13px" width="50px" fill="#323232" font-weight="400" align="middle" lineHeight="125%" anchor="middle" family="微软雅黑" size="13px" weight="400" font-style="" opacity="1" y="24.375" transform="rotate(0)"><tspan id="SvgjsTspan1021" dy="16.25" x="35"><tspan id="SvgjsTspan1022" style="">S3/1</tspan></tspan></text></g></g><g id="SvgjsG1023" transform="translate(315,306)"><path id="SvgjsPath1024" d="M 0 35C 0 -11.666666666666666 70 -11.666666666666666 70 35C 70 81.66666666666667 0 81.66666666666667 0 35Z" stroke="rgba(33,41,48,1)" stroke-width="1.5" fill-opacity="1" fill="#ffffff"></path><g id="SvgjsG1025"><text id="SvgjsText1026" font-family="微软雅黑" text-anchor="middle" font-size="13px" width="50px" fill="#323232" font-weight="400" align="middle" lineHeight="125%" anchor="middle" family="微软雅黑" size="13px" weight="400" font-style="" opacity="1" y="24.375" transform="rotate(0)"><tspan id="SvgjsTspan1027" dy="16.25" x="35"><tspan id="SvgjsTspan1028" style="">S2/0</tspan></tspan></text></g></g><g id="SvgjsG1029" transform="translate(315,118)"><path id="SvgjsPath1030" d="M 0 35C 0 -11.666666666666666 70 -11.666666666666666 70 35C 70 81.66666666666667 0 81.66666666666667 0 35Z" stroke="rgba(33,41,48,1)" stroke-width="1.5" fill-opacity="1" fill="#ffffff"></path><g id="SvgjsG1031"><text id="SvgjsText1032" font-family="微软雅黑" text-anchor="middle" font-size="13px" width="50px" fill="#323232" font-weight="400" align="middle" lineHeight="125%" anchor="middle" family="微软雅黑" size="13px" weight="400" font-style="" opacity="1" y="24.375" transform="rotate(0)"><tspan id="SvgjsTspan1033" dy="16.25" x="35"><tspan id="SvgjsTspan1034" style="">S1/0</tspan></tspan></text></g></g><g id="SvgjsG1035"><path id="SvgjsPath1036" d="M125.75 147L220.49391012564956 147L220.49391012564956 147.3487823687206L313.2878202512991 147.3487823687206" stroke="#323232" stroke-width="1.5" fill="none" marker-end="url(#SvgjsMarker1037)"></path><rect id="SvgjsRect1039" width="7.4" height="18" x="238.90358320195244" y="138.21732400156966" fill="#ffffff"></rect><text id="SvgjsText1040" font-family="微软雅黑" text-anchor="middle" font-size="13px" width="7.4px" fill="#323232" font-weight="400" align="top" lineHeight="16px" anchor="middle" family="微软雅黑" size="13px" weight="400" font-style="" opacity="1" y="135.59232400156966" transform="rotate(0)"><tspan id="SvgjsTspan1041" dy="16.25" x="242.40358320195244"><tspan id="SvgjsTspan1042" style="">1</tspan></tspan></text></g><g id="SvgjsG1043"><path id="SvgjsPath1044" d="M350 188.75L350 247L350 247L350 303.3" stroke="#323232" stroke-width="1.5" fill="none" marker-end="url(#SvgjsMarker1045)"></path><rect id="SvgjsRect1047" width="7.4" height="18" x="346.3" y="221.4927966101695" fill="#ffffff"></rect><text id="SvgjsText1048" font-family="微软雅黑" text-anchor="middle" font-size="13px" width="7.4px" fill="#323232" font-weight="400" align="top" lineHeight="16px" anchor="middle" family="微软雅黑" size="13px" weight="400" font-style="" opacity="1" y="218.8677966101695" transform="rotate(0)"><tspan id="SvgjsTspan1049" dy="16.25" x="349.8"><tspan id="SvgjsTspan1050" style="">1</tspan></tspan></text></g><g id="SvgjsG1051"><path id="SvgjsPath1052" d="M321.6770509831249 318.76335575687744L222.26412846841288 318.76335575687744L222.26412846841288 161.56162885321092L124.80120595370084 161.56162885321092" stroke="#323232" stroke-width="1.5" fill="none" marker-end="url(#SvgjsMarker1053)"></path><rect id="SvgjsRect1055" width="7.4" height="18" x="191.31585461189127" y="152.56162885321092" fill="#ffffff"></rect><text id="SvgjsText1056" font-family="微软雅黑" text-anchor="middle" font-size="13px" width="7.4px" fill="#323232" font-weight="400" align="top" lineHeight="16px" anchor="middle" family="微软雅黑" size="13px" weight="400" font-style="" opacity="1" y="149.93662885321092" transform="rotate(0)"><tspan id="SvgjsTspan1057" dy="16.25" x="194.81585461189127"><tspan id="SvgjsTspan1058" style="">0</tspan></tspan></text></g><g id="SvgjsG1059"><path id="SvgjsPath1060" d="M90 305.25L90 244L90 244L90 184.7" stroke="#323232" stroke-width="1.5" fill="none" marker-end="url(#SvgjsMarker1061)"></path><rect id="SvgjsRect1063" width="7.4" height="18" x="86.3" y="258.33508064516127" fill="#ffffff"></rect><text id="SvgjsText1064" font-family="微软雅黑" text-anchor="middle" font-size="13px" width="7.4px" fill="#323232" font-weight="400" align="top" lineHeight="16px" anchor="middle" family="微软雅黑" size="13px" weight="400" font-style="" opacity="1" y="255.71008064516127" transform="rotate(0)"><tspan id="SvgjsTspan1065" dy="16.25" x="89.8"><tspan id="SvgjsTspan1066" style="">0</tspan></tspan></text></g><g id="SvgjsG1067"><path id="SvgjsPath1068" d="M314.25 341L220 341L220 341L127.69999999999999 341" stroke="#323232" stroke-width="1.5" fill="none" marker-end="url(#SvgjsMarker1069)"></path><rect id="SvgjsRect1071" width="7.4" height="18" x="210.4021052631579" y="332" fill="#ffffff"></rect><text id="SvgjsText1072" font-family="微软雅黑" text-anchor="middle" font-size="13px" width="7.4px" fill="#323232" font-weight="400" align="top" lineHeight="16px" anchor="middle" family="微软雅黑" size="13px" weight="400" font-style="" opacity="1" y="329.375" transform="rotate(0)"><tspan id="SvgjsTspan1073" dy="16.25" x="213.9021052631579"><tspan id="SvgjsTspan1074" style="">1</tspan></tspan></text></g><g id="SvgjsG1075"><path id="SvgjsPath1076" d="M54.25 341L25 341L25 406L90 406L90 378.7" stroke="#323232" stroke-width="1.5" fill="none" marker-end="url(#SvgjsMarker1077)"></path><rect id="SvgjsRect1079" width="7.4" height="18" x="42.90736842105264" y="396.99999999999994" fill="#ffffff"></rect><text id="SvgjsText1080" font-family="微软雅黑" text-anchor="middle" font-size="13px" width="7.4px" fill="#323232" font-weight="400" align="top" lineHeight="16px" anchor="middle" family="微软雅黑" size="13px" weight="400" font-style="" opacity="1" y="394.37499999999994" transform="rotate(0)"><tspan id="SvgjsTspan1081" dy="16.25" x="46.40736842105264"><tspan id="SvgjsTspan1082" style="">1</tspan></tspan></text></g><g id="SvgjsG1083"><path id="SvgjsPath1084" d="M54.25 147L25 147L25 82L73.75348458715632 82L73.75348458715632 113.89517618519666" stroke="#323232" stroke-width="1.5" fill="none" marker-end="url(#SvgjsMarker1085)"></path><rect id="SvgjsRect1087" width="7.4" height="18" x="42.7673924478209" y="73" fill="#ffffff"></rect><text id="SvgjsText1088" font-family="微软雅黑" text-anchor="middle" font-size="13px" width="7.4px" fill="#323232" font-weight="400" align="top" lineHeight="16px" anchor="middle" family="微软雅黑" size="13px" weight="400" font-style="" opacity="1" y="70.375" transform="rotate(0)"><tspan id="SvgjsTspan1089" dy="16.25" x="46.2673924478209"><tspan id="SvgjsTspan1090" style="">0</tspan></tspan></text></g><g id="SvgjsG1091"><path id="SvgjsPath1092" d="M322.4020430144269 130.46264590130264L222.1634119952874 130.46264590130264L222.1634119952874 130.46264590130264L123.87478097614786 130.46264590130264" stroke="#323232" stroke-width="1.5" fill="none" marker-end="url(#SvgjsMarker1093)"></path><rect id="SvgjsRect1095" width="7.4" height="18" x="200.60233274387696" y="121.46264590130264" fill="#ffffff"></rect><text id="SvgjsText1096" font-family="微软雅黑" text-anchor="middle" font-size="13px" width="7.4px" fill="#323232" font-weight="400" align="top" lineHeight="16px" anchor="middle" family="微软雅黑" size="13px" weight="400" font-style="" opacity="1" y="118.83764590130264" transform="rotate(0)"><tspan id="SvgjsTspan1097" dy="16.25" x="204.10233274387696"><tspan id="SvgjsTspan1098" style="">0</tspan></tspan></text></g><g id="SvgjsG1099"><path id="SvgjsPath1100" d="M100.28989928337165 25L100.28989928337165 69.34923155196478L100.28989928337165 69.34923155196478L100.28989928337165 110.99846310392954" stroke="#323232" stroke-width="1.5" fill="none" marker-end="url(#SvgjsMarker1101)"></path></g></svg>