<svg id="SvgjsSvg1006" width="698.5" height="382" xmlns="http://www.w3.org/2000/svg" version="1.1" xmlns:xlink="http://www.w3.org/1999/xlink" xmlns:svgjs="http://svgjs.com/svgjs"><defs id="SvgjsDefs1007"><pattern patternUnits="userSpaceOnUse" id="pattern_mark_0" width="300" height="300"><text x="150" y="100" fill="rgba(229,229,229,0.8)" font-size="18" transform="rotate(-45, 150, 150)" style="dominant-baseline: middle; text-anchor: middle;"></text></pattern><pattern patternUnits="userSpaceOnUse" id="pattern_mark_1" width="300" height="300"><text x="150" y="200" fill="rgba(229,229,229,0.8)" font-size="18" transform="rotate(-45, 150, 150)" style="dominant-baseline: middle; text-anchor: middle;"></text></pattern><marker id="SvgjsMarker1037" markerWidth="13" markerHeight="9" refX="9.5" refY="4.5" viewBox="0 0 13 9" orient="auto" markerUnits="userSpaceOnUse" stroke-dasharray="0,0"><path id="SvgjsPath1038" d="M0,0 L13,4.5 L0,9 L0,0" fill="#323232" stroke="#323232" stroke-width="1"></path></marker><marker id="SvgjsMarker1041" markerWidth="13" markerHeight="9" refX="9.5" refY="4.5" viewBox="0 0 13 9" orient="auto" markerUnits="userSpaceOnUse" stroke-dasharray="0,0"><path id="SvgjsPath1042" d="M0,0 L13,4.5 L0,9 L0,0" fill="#323232" stroke="#323232" stroke-width="1"></path></marker><marker id="SvgjsMarker1049" markerWidth="13" markerHeight="9" refX="9.5" refY="4.5" viewBox="0 0 13 9" orient="auto" markerUnits="userSpaceOnUse" stroke-dasharray="0,0"><path id="SvgjsPath1050" d="M0,0 L13,4.5 L0,9 L0,0" fill="#323232" stroke="#323232" stroke-width="1"></path></marker><marker id="SvgjsMarker1057" markerWidth="13" markerHeight="9" refX="9.5" refY="4.5" viewBox="0 0 13 9" orient="auto" markerUnits="userSpaceOnUse" stroke-dasharray="0,0"><path id="SvgjsPath1058" d="M0,0 L13,4.5 L0,9 L0,0" fill="#323232" stroke="#323232" stroke-width="1"></path></marker><marker id="SvgjsMarker1065" markerWidth="13" markerHeight="9" refX="9.5" refY="4.5" viewBox="0 0 13 9" orient="auto" markerUnits="userSpaceOnUse" stroke-dasharray="0,0"><path id="SvgjsPath1066" d="M0,0 L13,4.5 L0,9 L0,0" fill="#323232" stroke="#323232" stroke-width="1"></path></marker></defs><rect id="svgbackgroundid" width="698.5" height="382" fill="transparent"></rect><rect id="SvgjsRect1009" width="698.5" height="382" fill="url(#pattern_mark_0)"></rect><rect id="SvgjsRect1010" width="698.5" height="382" fill="url(#pattern_mark_1)"></rect><g id="SvgjsG1011" transform="translate(186,111)"><path id="SvgjsPath1012" d="M 16.666666666666668 0L 83.33333333333333 0C 105.55555555555556 0 105.55555555555556 50 83.33333333333333 50L 16.666666666666668 50C -5.555555555555556 50 -5.555555555555556 0 16.666666666666668 0Z" stroke="rgba(33,41,48,1)" stroke-width="1.5" fill-opacity="1" fill="#ffffff"></path><g id="SvgjsG1013"><text id="SvgjsText1014" font-family="微软雅黑" text-anchor="middle" font-size="13px" width="80px" fill="#323232" font-weight="400" align="middle" lineHeight="125%" anchor="middle" family="微软雅黑" size="13px" weight="400" font-style="" opacity="1" y="14.375" transform="rotate(0)"><tspan id="SvgjsTspan1015" dy="16.25" x="50"><tspan id="SvgjsTspan1016" style="">NS G WE R</tspan></tspan></text></g></g><g id="SvgjsG1017" transform="translate(186,307)"><path id="SvgjsPath1018" d="M 16.666666666666668 0L 83.33333333333333 0C 105.55555555555556 0 105.55555555555556 50 83.33333333333333 50L 16.666666666666668 50C -5.555555555555556 50 -5.555555555555556 0 16.666666666666668 0Z" stroke="rgba(33,41,48,1)" stroke-width="1.5" fill-opacity="1" fill="#ffffff"></path><g id="SvgjsG1019"><text id="SvgjsText1020" font-family="微软雅黑" text-anchor="middle" font-size="13px" width="80px" fill="#323232" font-weight="400" align="middle" lineHeight="125%" anchor="middle" family="微软雅黑" size="13px" weight="400" font-style="" opacity="1" y="14.375" transform="rotate(0)"><tspan id="SvgjsTspan1021" dy="16.25" x="50"><tspan id="SvgjsTspan1022" style="">NS Y WE R</tspan></tspan></text></g></g><g id="SvgjsG1023" transform="translate(545,307)"><path id="SvgjsPath1024" d="M 16.666666666666668 0L 83.33333333333333 0C 105.55555555555556 0 105.55555555555556 50 83.33333333333333 50L 16.666666666666668 50C -5.555555555555556 50 -5.555555555555556 0 16.666666666666668 0Z" stroke="rgba(33,41,48,1)" stroke-width="1.5" fill-opacity="1" fill="#ffffff"></path><g id="SvgjsG1025"><text id="SvgjsText1026" font-family="微软雅黑" text-anchor="middle" font-size="13px" width="80px" fill="#323232" font-weight="400" align="middle" lineHeight="125%" anchor="middle" family="微软雅黑" size="13px" weight="400" font-style="" opacity="1" y="14.375" transform="rotate(0)"><tspan id="SvgjsTspan1027" dy="16.25" x="50"><tspan id="SvgjsTspan1028" style="">NS R WE G</tspan></tspan></text></g></g><g id="SvgjsG1029" transform="translate(545,111)"><path id="SvgjsPath1030" d="M 16.666666666666668 0L 83.33333333333333 0C 105.55555555555556 0 105.55555555555556 50 83.33333333333333 50L 16.666666666666668 50C -5.555555555555556 50 -5.555555555555556 0 16.666666666666668 0Z" stroke="rgba(33,41,48,1)" stroke-width="1.5" fill-opacity="1" fill="#ffffff"></path><g id="SvgjsG1031"><text id="SvgjsText1032" font-family="微软雅黑" text-anchor="middle" font-size="13px" width="80px" fill="#323232" font-weight="400" align="middle" lineHeight="125%" anchor="middle" family="微软雅黑" size="13px" weight="400" font-style="" opacity="1" y="14.375" transform="rotate(0)"><tspan id="SvgjsTspan1033" dy="16.25" x="50"><tspan id="SvgjsTspan1034" style="">NS R WE Y</tspan></tspan></text></g></g><g id="SvgjsG1035"><path id="SvgjsPath1036" d="M25 25L236 25L236 108.30000000000001" stroke="#323232" stroke-width="1.5" fill="none" marker-end="url(#SvgjsMarker1037)"></path></g><g id="SvgjsG1039"><path id="SvgjsPath1040" d="M236 161.75L236 234L236 234L236 304.3" stroke="#323232" stroke-width="1.5" fill="none" marker-end="url(#SvgjsMarker1041)"></path><rect id="SvgjsRect1043" width="156" height="16" x="158" y="224.8297290070416" fill="#ffffff"></rect><text id="SvgjsText1044" font-family="微软雅黑" text-anchor="middle" font-size="13px" width="156px" fill="#323232" font-weight="400" align="top" lineHeight="16px" anchor="middle" family="微软雅黑" size="13px" weight="400" font-style="" opacity="1" y="222.2047290070416" transform="rotate(0)"><tspan id="SvgjsTspan1045" dy="16.25" x="236"><tspan id="SvgjsTspan1046" style="">t&gt;=40/NS:=Y,WE:=R,t:=0</tspan></tspan></text></g><g id="SvgjsG1047"><path id="SvgjsPath1048" d="M286.75 332L415.5 332L415.5 332L542.3 332" stroke="#323232" stroke-width="1.5" fill="none" marker-end="url(#SvgjsMarker1049)"></path><rect id="SvgjsRect1051" width="151" height="16" x="303.9978764478765" y="324" fill="#ffffff"></rect><text id="SvgjsText1052" font-family="微软雅黑" text-anchor="middle" font-size="13px" width="151px" fill="#323232" font-weight="400" align="top" lineHeight="16px" anchor="middle" family="微软雅黑" size="13px" weight="400" font-style="" opacity="1" y="321.375" transform="rotate(0)"><tspan id="SvgjsTspan1053" dy="16.25" x="379.4978764478765"><tspan id="SvgjsTspan1054" style="">t&gt;=5/NS:=R,WE:=G,t:=0</tspan></tspan></text></g><g id="SvgjsG1055"><path id="SvgjsPath1056" d="M595 306.25L595 234L595 234L595 163.7" stroke="#323232" stroke-width="1.5" fill="none" marker-end="url(#SvgjsMarker1057)"></path><rect id="SvgjsRect1059" width="156" height="16" x="517" y="226.975" fill="#ffffff"></rect><text id="SvgjsText1060" font-family="微软雅黑" text-anchor="middle" font-size="13px" width="156px" fill="#323232" font-weight="400" align="top" lineHeight="16px" anchor="middle" family="微软雅黑" size="13px" weight="400" font-style="" opacity="1" y="224.35" transform="rotate(0)"><tspan id="SvgjsTspan1061" dy="16.25" x="595"><tspan id="SvgjsTspan1062" style="">t&gt;=30/NS:=R,WE:=Y,t:=0</tspan></tspan></text></g><g id="SvgjsG1063"><path id="SvgjsPath1064" d="M544.25 136L415.5 136L415.5 136L288.70000000000005 136" stroke="#323232" stroke-width="1.5" fill="none" marker-end="url(#SvgjsMarker1065)"></path><rect id="SvgjsRect1067" width="151" height="16" x="319.76138996139" y="128" fill="#ffffff"></rect><text id="SvgjsText1068" font-family="微软雅黑" text-anchor="middle" font-size="13px" width="151px" fill="#323232" font-weight="400" align="top" lineHeight="16px" anchor="middle" family="微软雅黑" size="13px" weight="400" font-style="" opacity="1" y="125.375" transform="rotate(0)"><tspan id="SvgjsTspan1069" dy="16.25" x="395.26138996139"><tspan id="SvgjsTspan1070" style="">t&gt;=5/NS:=G,WE:=R,t:=0</tspan></tspan></text></g></svg>