<svg id="SvgjsSvg1085" width="695" height="399" xmlns="http://www.w3.org/2000/svg" version="1.1" xmlns:xlink="http://www.w3.org/1999/xlink" xmlns:svgjs="http://svgjs.com/svgjs"><defs id="SvgjsDefs1086"><pattern patternUnits="userSpaceOnUse" id="pattern_mark_0" width="300" height="300"><text x="150" y="100" fill="rgba(229,229,229,0.8)" font-size="18" transform="rotate(-45, 150, 150)" style="dominant-baseline: middle; text-anchor: middle;"></text></pattern><pattern patternUnits="userSpaceOnUse" id="pattern_mark_1" width="300" height="300"><text x="150" y="200" fill="rgba(229,229,229,0.8)" font-size="18" transform="rotate(-45, 150, 150)" style="dominant-baseline: middle; text-anchor: middle;"></text></pattern><marker id="SvgjsMarker1116" markerWidth="13" markerHeight="9" refX="9.5" refY="4.5" viewBox="0 0 13 9" orient="auto" markerUnits="userSpaceOnUse" stroke-dasharray="0,0"><path id="SvgjsPath1117" d="M0,0 L13,4.5 L0,9 L0,0" fill="#323232" stroke="#323232" stroke-width="1"></path></marker><marker id="SvgjsMarker1124" markerWidth="13" markerHeight="9" refX="9.5" refY="4.5" viewBox="0 0 13 9" orient="auto" markerUnits="userSpaceOnUse" stroke-dasharray="0,0"><path id="SvgjsPath1125" d="M0,0 L13,4.5 L0,9 L0,0" fill="#323232" stroke="#323232" stroke-width="1"></path></marker><marker id="SvgjsMarker1132" markerWidth="13" markerHeight="9" refX="9.5" refY="4.5" viewBox="0 0 13 9" orient="auto" markerUnits="userSpaceOnUse" stroke-dasharray="0,0"><path id="SvgjsPath1133" d="M0,0 L13,4.5 L0,9 L0,0" fill="#323232" stroke="#323232" stroke-width="1"></path></marker><marker id="SvgjsMarker1140" markerWidth="13" markerHeight="9" refX="9.5" refY="4.5" viewBox="0 0 13 9" orient="auto" markerUnits="userSpaceOnUse" stroke-dasharray="0,0"><path id="SvgjsPath1141" d="M0,0 L13,4.5 L0,9 L0,0" fill="#323232" stroke="#323232" stroke-width="1"></path></marker><marker id="SvgjsMarker1154" markerWidth="13" markerHeight="9" refX="9.5" refY="4.5" viewBox="0 0 13 9" orient="auto" markerUnits="userSpaceOnUse" stroke-dasharray="0,0"><path id="SvgjsPath1155" d="M0,0 L13,4.5 L0,9 L0,0" fill="#323232" stroke="#323232" stroke-width="1"></path></marker><marker id="SvgjsMarker1162" markerWidth="13" markerHeight="9" refX="9.5" refY="4.5" viewBox="0 0 13 9" orient="auto" markerUnits="userSpaceOnUse" stroke-dasharray="0,0"><path id="SvgjsPath1163" d="M0,0 L13,4.5 L0,9 L0,0" fill="#323232" stroke="#323232" stroke-width="1"></path></marker></defs><rect id="svgbackgroundid" width="695" height="399" fill="transparent"></rect><rect id="SvgjsRect1088" width="695" height="399" fill="url(#pattern_mark_0)"></rect><rect id="SvgjsRect1089" width="695" height="399" fill="url(#pattern_mark_1)"></rect><g id="SvgjsG1090" transform="translate(187,128)"><path id="SvgjsPath1091" d="M 16.666666666666668 0L 83.33333333333333 0C 105.55555555555556 0 105.55555555555556 50 83.33333333333333 50L 16.666666666666668 50C -5.555555555555556 50 -5.555555555555556 0 16.666666666666668 0Z" stroke="rgba(33,41,48,1)" stroke-width="1.5" fill-opacity="1" fill="#ffffff"></path><g id="SvgjsG1092"><text id="SvgjsText1093" font-family="微软雅黑" text-anchor="middle" font-size="13px" width="80px" fill="#323232" font-weight="400" align="middle" lineHeight="125%" anchor="middle" family="微软雅黑" size="13px" weight="400" font-style="" opacity="1" y="14.375" transform="rotate(0)"><tspan id="SvgjsTspan1094" dy="16.25" x="50"><tspan id="SvgjsTspan1095" style="">NS G WE R</tspan></tspan></text></g></g><g id="SvgjsG1096" transform="translate(187,324)"><path id="SvgjsPath1097" d="M 16.666666666666668 0L 83.33333333333333 0C 105.55555555555556 0 105.55555555555556 50 83.33333333333333 50L 16.666666666666668 50C -5.555555555555556 50 -5.555555555555556 0 16.666666666666668 0Z" stroke="rgba(33,41,48,1)" stroke-width="1.5" fill-opacity="1" fill="#ffffff"></path><g id="SvgjsG1098"><text id="SvgjsText1099" font-family="微软雅黑" text-anchor="middle" font-size="13px" width="80px" fill="#323232" font-weight="400" align="middle" lineHeight="125%" anchor="middle" family="微软雅黑" size="13px" weight="400" font-style="" opacity="1" y="14.375" transform="rotate(0)"><tspan id="SvgjsTspan1100" dy="16.25" x="50"><tspan id="SvgjsTspan1101" style="">NS Y WE R</tspan></tspan></text></g></g><g id="SvgjsG1102" transform="translate(546,324)"><path id="SvgjsPath1103" d="M 16.666666666666668 0L 83.33333333333333 0C 105.55555555555556 0 105.55555555555556 50 83.33333333333333 50L 16.666666666666668 50C -5.555555555555556 50 -5.555555555555556 0 16.666666666666668 0Z" stroke="rgba(33,41,48,1)" stroke-width="1.5" fill-opacity="1" fill="#ffffff"></path><g id="SvgjsG1104"><text id="SvgjsText1105" font-family="微软雅黑" text-anchor="middle" font-size="13px" width="80px" fill="#323232" font-weight="400" align="middle" lineHeight="125%" anchor="middle" family="微软雅黑" size="13px" weight="400" font-style="" opacity="1" y="14.375" transform="rotate(0)"><tspan id="SvgjsTspan1106" dy="16.25" x="50"><tspan id="SvgjsTspan1107" style="">NS R WE G</tspan></tspan></text></g></g><g id="SvgjsG1108" transform="translate(546,128)"><path id="SvgjsPath1109" d="M 16.666666666666668 0L 83.33333333333333 0C 105.55555555555556 0 105.55555555555556 50 83.33333333333333 50L 16.666666666666668 50C -5.555555555555556 50 -5.555555555555556 0 16.666666666666668 0Z" stroke="rgba(33,41,48,1)" stroke-width="1.5" fill-opacity="1" fill="#ffffff"></path><g id="SvgjsG1110"><text id="SvgjsText1111" font-family="微软雅黑" text-anchor="middle" font-size="13px" width="80px" fill="#323232" font-weight="400" align="middle" lineHeight="125%" anchor="middle" family="微软雅黑" size="13px" weight="400" font-style="" opacity="1" y="14.375" transform="rotate(0)"><tspan id="SvgjsTspan1112" dy="16.25" x="50"><tspan id="SvgjsTspan1113" style="">NS R WE Y</tspan></tspan></text></g></g><g id="SvgjsG1114"><path id="SvgjsPath1115" d="M237 178.75L237 251L237 251L237 321.3" stroke="#323232" stroke-width="1.5" fill="none" marker-end="url(#SvgjsMarker1116)"></path><rect id="SvgjsRect1118" width="146.4" height="18" x="163.8" y="240.82972900704164" fill="#ffffff"></rect><text id="SvgjsText1119" font-family="微软雅黑" text-anchor="middle" font-size="13px" width="146.4px" fill="#323232" font-weight="400" align="top" lineHeight="16px" anchor="middle" family="微软雅黑" size="13px" weight="400" font-style="" opacity="1" y="238.20472900704164" transform="rotate(0)"><tspan id="SvgjsTspan1120" dy="16.25" x="236.8"><tspan id="SvgjsTspan1121" style="">t=40/NS:=Y,WE:=R,t:=0</tspan></tspan></text></g><g id="SvgjsG1122"><path id="SvgjsPath1123" d="M287.75 349L416.5 349L416.5 349L543.3 349" stroke="#323232" stroke-width="1.5" fill="none" marker-end="url(#SvgjsMarker1124)"></path><rect id="SvgjsRect1126" width="141.4" height="18" x="309.7978764478765" y="340" fill="#ffffff"></rect><text id="SvgjsText1127" font-family="微软雅黑" text-anchor="middle" font-size="13px" width="141.4px" fill="#323232" font-weight="400" align="top" lineHeight="16px" anchor="middle" family="微软雅黑" size="13px" weight="400" font-style="" opacity="1" y="337.375" transform="rotate(0)"><tspan id="SvgjsTspan1128" dy="16.25" x="380.2978764478765"><tspan id="SvgjsTspan1129" style="">t=5/NS:=R,WE:=G,t:=0</tspan></tspan></text></g><g id="SvgjsG1130"><path id="SvgjsPath1131" d="M596 323.25L596 251L596 251L596 180.7" stroke="#323232" stroke-width="1.5" fill="none" marker-end="url(#SvgjsMarker1132)"></path><rect id="SvgjsRect1134" width="146.4" height="18" x="522.8" y="242.975" fill="#ffffff"></rect><text id="SvgjsText1135" font-family="微软雅黑" text-anchor="middle" font-size="13px" width="146.4px" fill="#323232" font-weight="400" align="top" lineHeight="16px" anchor="middle" family="微软雅黑" size="13px" weight="400" font-style="" opacity="1" y="240.35" transform="rotate(0)"><tspan id="SvgjsTspan1136" dy="16.25" x="595.8"><tspan id="SvgjsTspan1137" style="">t=30/NS:=R,WE:=Y,t:=0</tspan></tspan></text></g><g id="SvgjsG1138"><path id="SvgjsPath1139" d="M545.25 153L416.5 153L416.5 153L289.70000000000005 153" stroke="#323232" stroke-width="1.5" fill="none" marker-end="url(#SvgjsMarker1140)"></path><rect id="SvgjsRect1142" width="141.4" height="18" x="325.56138996139003" y="144" fill="#ffffff"></rect><text id="SvgjsText1143" font-family="微软雅黑" text-anchor="middle" font-size="13px" width="141.4px" fill="#323232" font-weight="400" align="top" lineHeight="16px" anchor="middle" family="微软雅黑" size="13px" weight="400" font-style="" opacity="1" y="141.375" transform="rotate(0)"><tspan id="SvgjsTspan1144" dy="16.25" x="396.06138996139003"><tspan id="SvgjsTspan1145" style="">t=5/NS:=G,WE:=R,t:=0</tspan></tspan></text></g><g id="SvgjsG1146" transform="translate(187,25)"><path id="SvgjsPath1147" d="M 16.666666666666668 0L 83.33333333333333 0C 105.55555555555556 0 105.55555555555556 50 83.33333333333333 50L 16.666666666666668 50C -5.555555555555556 50 -5.555555555555556 0 16.666666666666668 0Z" stroke="rgba(33,41,48,1)" stroke-width="1.5" fill-opacity="1" fill="#ffffff"></path><g id="SvgjsG1148"><text id="SvgjsText1149" font-family="微软雅黑" text-anchor="middle" font-size="13px" width="80px" fill="#323232" font-weight="400" align="middle" lineHeight="125%" anchor="middle" family="微软雅黑" size="13px" weight="400" font-style="" opacity="1" y="14.375" transform="rotate(0)"><tspan id="SvgjsTspan1150" dy="16.25" x="50"><tspan id="SvgjsTspan1151" style="">NS Y WE Y</tspan></tspan></text></g></g><g id="SvgjsG1152"><path id="SvgjsPath1153" d="M237 75.75L237 101.5L237 101.5L237 125.30000000000001" stroke="#323232" stroke-width="1.5" fill="none" marker-end="url(#SvgjsMarker1154)"></path><rect id="SvgjsRect1156" width="141.4" height="18" x="166.3" y="81.70849056603774" fill="#ffffff"></rect><text id="SvgjsText1157" font-family="微软雅黑" text-anchor="middle" font-size="13px" width="141.4px" fill="#323232" font-weight="400" align="top" lineHeight="16px" anchor="middle" family="微软雅黑" size="13px" weight="400" font-style="" opacity="1" y="79.08349056603774" transform="rotate(0)"><tspan id="SvgjsTspan1158" dy="16.25" x="236.8"><tspan id="SvgjsTspan1159" style="">t=0/NS:=G,WE:=R,t:=0</tspan></tspan></text></g><g id="SvgjsG1160"><path id="SvgjsPath1161" d="M25 50L106 50L106 50L184.3 50" stroke="#323232" stroke-width="1.5" fill="none" marker-end="url(#SvgjsMarker1162)"></path></g></svg>